<svg width="168" height="206" viewBox="0 0 168 206" fill="none" xmlns="http://www.w3.org/2000/svg">
<path d="M70.1792 124.756H68.1912V120.822C68.1912 120.486 68.2846 120.225 68.4712 120.038C68.6672 119.842 68.9286 119.744 69.2552 119.744C69.4419 119.744 69.6192 119.758 69.7872 119.786C69.9646 119.814 70.0952 119.842 70.1792 119.87V124.756ZM69.2412 125.008V123.398H73.4412C73.4879 123.482 73.5346 123.594 73.5812 123.734C73.6279 123.865 73.6512 124.014 73.6512 124.182C73.6512 124.453 73.5859 124.658 73.4552 124.798C73.3339 124.938 73.1659 125.008 72.9512 125.008H69.2412ZM69.2552 121.368V119.744H73.9172C73.9732 119.828 74.0199 119.94 74.0572 120.08C74.1039 120.22 74.1272 120.37 74.1272 120.528C74.1272 120.808 74.0619 121.018 73.9312 121.158C73.8099 121.298 73.6372 121.368 73.4132 121.368H69.2552ZM68.1912 123.846H70.2072V128.228C70.1232 128.247 69.9926 128.27 69.8152 128.298C69.6379 128.326 69.4559 128.34 69.2692 128.34C68.8866 128.34 68.6112 128.27 68.4432 128.13C68.2752 127.981 68.1912 127.738 68.1912 127.402V123.846ZM75.199 119.604C75.199 119.306 75.3017 119.054 75.507 118.848C75.7123 118.643 75.9783 118.54 76.305 118.54C76.6317 118.54 76.8977 118.643 77.103 118.848C77.3083 119.054 77.411 119.306 77.411 119.604C77.411 119.903 77.3083 120.16 77.103 120.374C76.8977 120.58 76.6317 120.682 76.305 120.682C75.9783 120.682 75.7123 120.58 75.507 120.374C75.3017 120.16 75.199 119.903 75.199 119.604ZM75.325 124.546H77.285V128.228C77.201 128.247 77.0797 128.27 76.921 128.298C76.7623 128.326 76.5897 128.34 76.403 128.34C76.0297 128.34 75.7543 128.275 75.577 128.144C75.409 128.014 75.325 127.776 75.325 127.43V124.546ZM77.285 125.554H75.325V121.62C75.409 121.602 75.5303 121.578 75.689 121.55C75.8477 121.522 76.0203 121.508 76.207 121.508C76.5803 121.508 76.851 121.574 77.019 121.704C77.1963 121.835 77.285 122.078 77.285 122.432V125.554ZM81.7871 127.99C81.2271 127.99 80.7138 127.883 80.2471 127.668C79.7804 127.454 79.4024 127.104 79.1131 126.618C78.8331 126.133 78.6931 125.494 78.6931 124.7C78.6931 123.963 78.8378 123.347 79.1271 122.852C79.4164 122.358 79.8224 121.984 80.3451 121.732C80.8771 121.48 81.4884 121.354 82.1791 121.354C82.6831 121.354 83.1451 121.42 83.5651 121.55C83.9851 121.672 84.3164 121.812 84.5591 121.97C84.7271 122.082 84.8624 122.218 84.9651 122.376C85.0678 122.526 85.1191 122.712 85.1191 122.936V127.318H83.2291V123.132C83.1171 123.067 82.9818 123.011 82.8231 122.964C82.6644 122.918 82.4731 122.894 82.2491 122.894C81.7731 122.894 81.3858 123.044 81.0871 123.342C80.7884 123.632 80.6391 124.084 80.6391 124.7C80.6391 125.382 80.7791 125.853 81.0591 126.114C81.3484 126.376 81.7031 126.506 82.1231 126.506C82.4498 126.506 82.7158 126.45 82.9211 126.338C83.1264 126.226 83.3038 126.1 83.4531 125.96L83.5231 127.528C83.3364 127.65 83.0984 127.757 82.8091 127.85C82.5291 127.944 82.1884 127.99 81.7871 127.99ZM83.2571 128.214V126.884H85.1191V128.27C85.1191 128.914 84.9651 129.437 84.6571 129.838C84.3584 130.249 83.9524 130.548 83.4391 130.734C82.9351 130.93 82.3658 131.028 81.7311 131.028C81.2458 131.028 80.8164 130.986 80.4431 130.902C80.0791 130.818 79.7991 130.716 79.6031 130.594C79.2858 130.389 79.1271 130.109 79.1271 129.754C79.1271 129.568 79.1644 129.4 79.2391 129.25C79.3231 129.11 79.4211 129.003 79.5331 128.928C79.7758 129.078 80.0698 129.208 80.4151 129.32C80.7604 129.432 81.1291 129.488 81.5211 129.488C82.0624 129.488 82.4871 129.386 82.7951 129.18C83.1031 128.975 83.2571 128.653 83.2571 128.214ZM92.7727 123.636V125.218H90.8127V123.874C90.8127 123.538 90.7147 123.291 90.5187 123.132C90.3227 122.974 90.0707 122.894 89.7627 122.894C89.548 122.894 89.352 122.927 89.1747 122.992C88.9974 123.058 88.848 123.128 88.7267 123.202V125.218H86.7807V123.02C86.7807 122.796 86.8274 122.61 86.9207 122.46C87.0234 122.311 87.168 122.171 87.3547 122.04C87.6534 121.835 88.022 121.672 88.4607 121.55C88.9087 121.42 89.366 121.354 89.8327 121.354C90.29 121.354 90.71 121.424 91.0927 121.564C91.4847 121.704 91.816 121.914 92.0867 122.194C92.1614 122.25 92.2314 122.311 92.2967 122.376C92.362 122.432 92.4134 122.498 92.4507 122.572C92.5347 122.712 92.6094 122.876 92.6747 123.062C92.74 123.249 92.7727 123.44 92.7727 123.636ZM96.8047 123.804V125.218H94.8587V123.874C94.8587 123.538 94.7607 123.291 94.5647 123.132C94.378 122.974 94.1307 122.894 93.8227 122.894C93.5987 122.894 93.3794 122.941 93.1647 123.034C92.9594 123.128 92.782 123.244 92.6327 123.384L91.6247 122.236C91.9234 121.994 92.2687 121.788 92.6607 121.62C93.062 121.443 93.538 121.354 94.0887 121.354C94.574 121.354 95.022 121.438 95.4327 121.606C95.8527 121.765 96.184 122.026 96.4267 122.39C96.6787 122.745 96.8047 123.216 96.8047 123.804ZM86.7807 124.574H88.7267V128.228C88.6427 128.247 88.5214 128.27 88.3627 128.298C88.204 128.326 88.0314 128.34 87.8447 128.34C87.4807 128.34 87.21 128.275 87.0327 128.144C86.8647 128.014 86.7807 127.776 86.7807 127.43V124.574ZM90.8127 124.574H92.7727V128.228C92.6887 128.247 92.5627 128.27 92.3947 128.298C92.236 128.326 92.068 128.34 91.8907 128.34C91.5174 128.34 91.242 128.275 91.0647 128.144C90.8967 128.014 90.8127 127.776 90.8127 127.43V124.574ZM94.8587 124.574H96.8047V128.228C96.7207 128.247 96.5994 128.27 96.4407 128.298C96.282 128.326 96.1094 128.34 95.9227 128.34C95.5494 128.34 95.2787 128.275 95.1107 128.144C94.9427 128.014 94.8587 127.776 94.8587 127.43V124.574ZM101.186 126.996C101.429 126.996 101.653 126.973 101.858 126.926C102.073 126.88 102.231 126.824 102.334 126.758V125.33L101.074 125.442C100.738 125.47 100.477 125.545 100.29 125.666C100.103 125.788 100.01 125.965 100.01 126.198C100.01 126.441 100.103 126.637 100.29 126.786C100.477 126.926 100.775 126.996 101.186 126.996ZM101.116 121.354C102.059 121.354 102.81 121.555 103.37 121.956C103.939 122.348 104.224 122.969 104.224 123.818V127.01C104.224 127.244 104.163 127.43 104.042 127.57C103.93 127.701 103.785 127.822 103.608 127.934C103.337 128.093 102.997 128.219 102.586 128.312C102.175 128.406 101.709 128.452 101.186 128.452C100.243 128.452 99.4918 128.27 98.9318 127.906C98.3812 127.542 98.1058 126.996 98.1058 126.268C98.1058 125.634 98.3018 125.148 98.6938 124.812C99.0858 124.476 99.6692 124.271 100.444 124.196L102.32 124V123.79C102.32 123.454 102.194 123.212 101.942 123.062C101.69 122.913 101.335 122.838 100.878 122.838C100.523 122.838 100.173 122.885 99.8278 122.978C99.4825 123.062 99.1745 123.165 98.9038 123.286C98.8012 123.212 98.7125 123.104 98.6378 122.964C98.5632 122.815 98.5258 122.661 98.5258 122.502C98.5258 122.129 98.7265 121.858 99.1278 121.69C99.3985 121.578 99.7112 121.494 100.066 121.438C100.421 121.382 100.771 121.354 101.116 121.354Z" fill="#828282"/>
<g clip-path="url(#clip0_2_208)">
<path d="M72.0513 89.6605C80.0898 89.6605 86.61 83.0208 86.61 74.8348V60.0091H72.0513C64.0128 60.0091 57.4927 66.6488 57.4927 74.8348C57.4927 83.0208 64.0128 89.6605 72.0513 89.6605Z" fill="#0ACF83"/>
<path d="M57.4927 45.1652C57.4927 36.9793 64.0128 30.3395 72.0513 30.3395H86.61V60.0091H72.0513C64.0128 59.9909 57.4927 53.3512 57.4927 45.1652Z" fill="#A259FF"/>
<path d="M57.4927 15.4956C57.4927 7.30965 64.0128 0.669922 72.0513 0.669922H86.61V30.3395H72.0513C64.0128 30.3395 57.4927 23.6816 57.4927 15.4956Z" fill="#F24E1E"/>
<path d="M86.6278 0.669922H101.186C109.225 0.669922 115.745 7.30965 115.745 15.4956C115.745 23.6816 109.225 30.3213 101.186 30.3213H86.6278V0.669922Z" fill="#FF7262"/>
<path d="M115.745 45.1652C115.745 53.3512 109.225 59.9909 101.186 59.9909C93.1479 59.9909 86.6278 53.3512 86.6278 45.1652C86.6278 36.9793 93.1479 30.3395 101.186 30.3395C109.225 30.3395 115.745 36.9793 115.745 45.1652Z" fill="#1ABCFE"/>
</g>
<path d="M12.9251 182.86C13.225 181.94 14.5269 181.94 14.8267 182.86L16.5778 188.234C16.7119 188.646 17.0957 188.924 17.5286 188.924H23.1894C24.1588 188.924 24.5611 190.165 23.7761 190.734L19.2012 194.049C18.8498 194.304 18.7027 194.756 18.8371 195.168L20.5857 200.535C20.8857 201.456 19.8325 202.223 19.0482 201.655L14.4626 198.332C14.1126 198.079 13.6392 198.079 13.2892 198.332L8.70366 201.655C7.91941 202.223 6.86612 201.456 7.16614 200.535L8.91471 195.168C9.04917 194.756 8.90209 194.304 8.55063 194.049L3.97575 190.734C3.19075 190.165 3.59308 188.924 4.56247 188.924H10.2232C10.6562 188.924 11.0399 188.646 11.174 188.234L12.9251 182.86Z" fill="#070707"/>
<path d="M48.0222 182.86C48.322 181.94 49.6239 181.94 49.9238 182.86L51.6749 188.234C51.809 188.646 52.1928 188.924 52.6257 188.924H58.2864C59.2558 188.924 59.6582 190.165 58.8732 190.734L54.2983 194.049C53.9468 194.304 53.7997 194.756 53.9342 195.168L55.6828 200.535C55.9828 201.456 54.9295 202.223 54.1452 201.655L49.5597 198.332C49.2097 198.079 48.7363 198.079 48.3863 198.332L43.8007 201.655C43.0165 202.223 41.9632 201.456 42.2632 200.535L44.0118 195.168C44.1462 194.756 43.9991 194.304 43.6477 194.049L39.0728 190.734C38.2878 190.165 38.6901 188.924 39.6595 188.924H45.3203C45.7532 188.924 46.137 188.646 46.2711 188.234L48.0222 182.86Z" fill="#070707"/>
<path d="M83.1193 182.86C83.4192 181.94 84.7211 181.94 85.0209 182.86L86.772 188.234C86.9062 188.646 87.2899 188.924 87.7228 188.924H93.3836C94.353 188.924 94.7553 190.165 93.9703 190.734L89.3954 194.049C89.044 194.304 88.8969 194.756 89.0314 195.168L90.7799 200.535C91.08 201.456 90.0267 202.223 89.2424 201.655L84.6569 198.332C84.3068 198.079 83.8335 198.079 83.4834 198.332L78.8979 201.655C78.1136 202.223 77.0603 201.456 77.3604 200.535L79.1089 195.168C79.2434 194.756 79.0963 194.304 78.7448 194.049L74.17 190.734C73.385 190.165 73.7873 188.924 74.7567 188.924H80.4174C80.8504 188.924 81.2341 188.646 81.3682 188.234L83.1193 182.86Z" fill="#070707"/>
<path d="M118.216 182.86C118.516 181.94 119.818 181.94 120.118 182.86L121.869 188.234C122.003 188.646 122.387 188.924 122.82 188.924H128.481C129.45 188.924 129.852 190.165 129.067 190.734L124.492 194.049C124.141 194.304 123.994 194.756 124.128 195.168L125.877 200.535C126.177 201.456 125.124 202.223 124.339 201.655L119.754 198.332C119.404 198.079 118.931 198.079 118.58 198.332L113.995 201.655C113.211 202.223 112.157 201.456 112.457 200.535L114.206 195.168C114.34 194.756 114.193 194.304 113.842 194.049L109.267 190.734C108.482 190.165 108.884 188.924 109.854 188.924H115.514C115.947 188.924 116.331 188.646 116.465 188.234L118.216 182.86Z" fill="#070707"/>
<path d="M153.314 182.86C153.613 181.94 154.915 181.94 155.215 182.86L156.966 188.234C157.1 188.646 157.484 188.924 157.917 188.924H163.578C164.547 188.924 164.95 190.165 164.165 190.734L159.59 194.049C159.238 194.304 159.091 194.756 159.226 195.168L160.974 200.535C161.274 201.456 160.221 202.223 159.437 201.655L154.851 198.332C154.501 198.079 154.028 198.079 153.678 198.332L149.092 201.655C148.308 202.223 147.255 201.456 147.555 200.535L149.303 195.168C149.438 194.756 149.291 194.304 148.939 194.049L144.364 190.734C143.579 190.165 143.982 188.924 144.951 188.924H150.612C151.045 188.924 151.428 188.646 151.562 188.234L153.314 182.86Z" fill="#E5E5E5"/>
<defs>
<clipPath id="clip0_2_208">
<rect width="58.2524" height="88.9906" fill="white" transform="translate(57.4927 0.669922)"/>
</clipPath>
</defs>
</svg>
