<svg width="168" height="206" viewBox="0 0 168 206" fill="none" xmlns="http://www.w3.org/2000/svg">
<path d="M67.9271 127.354C67.6378 127.354 67.4091 127.275 67.2411 127.116C67.0824 126.948 67.0031 126.71 67.0031 126.402V118.324C67.0031 118.016 67.0824 117.783 67.2411 117.624C67.4091 117.456 67.6471 117.372 67.9551 117.372H72.8411C73.0838 117.372 73.2658 117.433 73.3871 117.554C73.5084 117.676 73.5691 117.848 73.5691 118.072C73.5691 118.306 73.5084 118.488 73.3871 118.618C73.2658 118.74 73.0838 118.8 72.8411 118.8H68.7951V121.586H72.5471C72.7804 121.586 72.9578 121.647 73.0791 121.768C73.2098 121.89 73.2751 122.062 73.2751 122.286C73.2751 122.52 73.2098 122.702 73.0791 122.832C72.9578 122.954 72.7804 123.014 72.5471 123.014H68.7951V126.402C68.7951 127.037 68.5058 127.354 67.9271 127.354ZM76.125 127.34C75.845 127.34 75.6303 127.256 75.481 127.088C75.3316 126.92 75.257 126.687 75.257 126.388V121.25C75.257 120.942 75.3316 120.709 75.481 120.55C75.6303 120.382 75.845 120.298 76.125 120.298C76.405 120.298 76.6196 120.382 76.769 120.55C76.9276 120.709 77.007 120.942 77.007 121.25V126.388C77.007 126.687 76.9323 126.92 76.783 127.088C76.6336 127.256 76.4143 127.34 76.125 127.34ZM76.125 118.996C75.7983 118.996 75.5416 118.917 75.355 118.758C75.1776 118.59 75.089 118.362 75.089 118.072C75.089 117.774 75.1776 117.545 75.355 117.386C75.5416 117.228 75.7983 117.148 76.125 117.148C76.461 117.148 76.7176 117.228 76.895 117.386C77.0723 117.545 77.161 117.774 77.161 118.072C77.161 118.362 77.0723 118.59 76.895 118.758C76.7176 118.917 76.461 118.996 76.125 118.996ZM82.0173 129.902C81.5133 129.902 81.0233 129.856 80.5473 129.762C80.0807 129.669 79.656 129.524 79.2733 129.328C79.096 129.235 78.9747 129.123 78.9093 128.992C78.8533 128.862 78.8347 128.726 78.8533 128.586C78.8813 128.456 78.9373 128.339 79.0213 128.236C79.1147 128.134 79.2267 128.064 79.3573 128.026C79.488 127.989 79.6233 128.008 79.7633 128.082C80.174 128.288 80.5613 128.418 80.9253 128.474C81.2987 128.54 81.616 128.572 81.8773 128.572C82.5027 128.572 82.9693 128.418 83.2773 128.11C83.5947 127.812 83.7533 127.364 83.7533 126.766V125.506H83.8793C83.7393 125.982 83.4453 126.365 82.9973 126.654C82.5587 126.934 82.0593 127.074 81.4993 127.074C80.8833 127.074 80.3467 126.934 79.8893 126.654C79.432 126.365 79.0773 125.964 78.8253 125.45C78.5733 124.937 78.4473 124.34 78.4473 123.658C78.4473 123.145 78.5173 122.683 78.6573 122.272C78.8067 121.852 79.012 121.493 79.2733 121.194C79.544 120.896 79.866 120.667 80.2393 120.508C80.622 120.34 81.042 120.256 81.4993 120.256C82.078 120.256 82.582 120.401 83.0113 120.69C83.45 120.97 83.7347 121.344 83.8653 121.81L83.7253 122.16V121.166C83.7253 120.877 83.8 120.658 83.9493 120.508C84.108 120.359 84.3227 120.284 84.5933 120.284C84.8733 120.284 85.088 120.359 85.2373 120.508C85.3867 120.658 85.4613 120.877 85.4613 121.166V126.556C85.4613 127.667 85.1673 128.502 84.5793 129.062C83.9913 129.622 83.1373 129.902 82.0173 129.902ZM81.9753 125.744C82.3393 125.744 82.652 125.66 82.9133 125.492C83.1747 125.324 83.3753 125.086 83.5153 124.778C83.6647 124.461 83.7393 124.088 83.7393 123.658C83.7393 123.014 83.5807 122.51 83.2633 122.146C82.946 121.773 82.5167 121.586 81.9753 121.586C81.6113 121.586 81.2987 121.67 81.0373 121.838C80.776 122.006 80.5707 122.244 80.4213 122.552C80.2813 122.86 80.2113 123.229 80.2113 123.658C80.2113 124.302 80.37 124.811 80.6873 125.184C81.0047 125.558 81.434 125.744 81.9753 125.744ZM88.1705 127.354C87.8905 127.354 87.6759 127.28 87.5265 127.13C87.3772 126.972 87.3025 126.748 87.3025 126.458V121.166C87.3025 120.877 87.3772 120.658 87.5265 120.508C87.6759 120.359 87.8859 120.284 88.1565 120.284C88.4272 120.284 88.6372 120.359 88.7865 120.508C88.9359 120.658 89.0105 120.877 89.0105 121.166V122.188L88.8565 121.768C89.0432 121.302 89.3325 120.933 89.7245 120.662C90.1165 120.392 90.5832 120.256 91.1245 120.256C91.6752 120.256 92.1279 120.387 92.4825 120.648C92.8372 120.91 93.0845 121.311 93.2245 121.852H93.0285C93.2152 121.358 93.5232 120.97 93.9525 120.69C94.3819 120.401 94.8765 120.256 95.4365 120.256C95.9592 120.256 96.3885 120.359 96.7245 120.564C97.0699 120.77 97.3265 121.082 97.4945 121.502C97.6625 121.913 97.7465 122.436 97.7465 123.07V126.458C97.7465 126.748 97.6672 126.972 97.5085 127.13C97.3592 127.28 97.1445 127.354 96.8645 127.354C96.5845 127.354 96.3699 127.28 96.2205 127.13C96.0712 126.972 95.9965 126.748 95.9965 126.458V123.14C95.9965 122.618 95.9079 122.235 95.7305 121.992C95.5625 121.75 95.2732 121.628 94.8625 121.628C94.4052 121.628 94.0459 121.792 93.7845 122.118C93.5232 122.436 93.3925 122.879 93.3925 123.448V126.458C93.3925 126.748 93.3179 126.972 93.1685 127.13C93.0192 127.28 92.8045 127.354 92.5245 127.354C92.2445 127.354 92.0252 127.28 91.8665 127.13C91.7172 126.972 91.6425 126.748 91.6425 126.458V123.14C91.6425 122.618 91.5539 122.235 91.3765 121.992C91.2085 121.75 90.9239 121.628 90.5225 121.628C90.0652 121.628 89.7059 121.792 89.4445 122.118C89.1832 122.436 89.0525 122.879 89.0525 123.448V126.458C89.0525 127.056 88.7585 127.354 88.1705 127.354ZM101.806 127.382C101.311 127.382 100.868 127.289 100.476 127.102C100.093 126.906 99.7899 126.645 99.5659 126.318C99.3512 125.992 99.2439 125.623 99.2439 125.212C99.2439 124.708 99.3746 124.312 99.6359 124.022C99.8972 123.724 100.322 123.509 100.91 123.378C101.498 123.248 102.287 123.182 103.276 123.182H103.976V124.19H103.29C102.711 124.19 102.249 124.218 101.904 124.274C101.559 124.33 101.311 124.428 101.162 124.568C101.022 124.699 100.952 124.886 100.952 125.128C100.952 125.436 101.059 125.688 101.274 125.884C101.489 126.08 101.787 126.178 102.17 126.178C102.478 126.178 102.749 126.108 102.982 125.968C103.225 125.819 103.416 125.618 103.556 125.366C103.696 125.114 103.766 124.825 103.766 124.498V122.888C103.766 122.422 103.663 122.086 103.458 121.88C103.253 121.675 102.907 121.572 102.422 121.572C102.151 121.572 101.857 121.605 101.54 121.67C101.232 121.736 100.905 121.848 100.56 122.006C100.383 122.09 100.224 122.114 100.084 122.076C99.9532 122.039 99.8506 121.964 99.7759 121.852C99.7012 121.731 99.6639 121.6 99.6639 121.46C99.6639 121.32 99.7012 121.185 99.7759 121.054C99.8506 120.914 99.9766 120.812 100.154 120.746C100.583 120.569 100.994 120.443 101.386 120.368C101.787 120.294 102.151 120.256 102.478 120.256C103.15 120.256 103.701 120.359 104.13 120.564C104.569 120.77 104.895 121.082 105.11 121.502C105.325 121.913 105.432 122.445 105.432 123.098V126.458C105.432 126.748 105.362 126.972 105.222 127.13C105.082 127.28 104.881 127.354 104.62 127.354C104.359 127.354 104.153 127.28 104.004 127.13C103.864 126.972 103.794 126.748 103.794 126.458V125.786H103.906C103.841 126.113 103.71 126.398 103.514 126.64C103.327 126.874 103.089 127.056 102.8 127.186C102.511 127.317 102.179 127.382 101.806 127.382Z" fill="#828282"/>
<g clip-path="url(#clip0_2_208)">
<path d="M72.0513 89.6605C80.0898 89.6605 86.61 83.0208 86.61 74.8348V60.0091H72.0513C64.0128 60.0091 57.4927 66.6488 57.4927 74.8348C57.4927 83.0208 64.0128 89.6605 72.0513 89.6605Z" fill="#0ACF83"/>
<path d="M57.4927 45.1652C57.4927 36.9793 64.0128 30.3395 72.0513 30.3395H86.61V60.0091H72.0513C64.0128 59.9909 57.4927 53.3512 57.4927 45.1652Z" fill="#A259FF"/>
<path d="M57.4927 15.4956C57.4927 7.30965 64.0128 0.669922 72.0513 0.669922H86.61V30.3395H72.0513C64.0128 30.3395 57.4927 23.6816 57.4927 15.4956Z" fill="#F24E1E"/>
<path d="M86.6278 0.669922H101.186C109.225 0.669922 115.745 7.30965 115.745 15.4956C115.745 23.6816 109.225 30.3213 101.186 30.3213H86.6278V0.669922Z" fill="#FF7262"/>
<path d="M115.745 45.1652C115.745 53.3512 109.225 59.9909 101.186 59.9909C93.1479 59.9909 86.6278 53.3512 86.6278 45.1652C86.6278 36.9793 93.1479 30.3395 101.186 30.3395C109.225 30.3395 115.745 36.9793 115.745 45.1652Z" fill="#1ABCFE"/>
</g>
<path d="M12.9251 182.86C13.225 181.94 14.5269 181.94 14.8267 182.86L16.5778 188.234C16.7119 188.646 17.0957 188.924 17.5286 188.924H23.1894C24.1588 188.924 24.5611 190.165 23.7761 190.734L19.2012 194.049C18.8498 194.304 18.7027 194.756 18.8371 195.168L20.5857 200.535C20.8857 201.456 19.8325 202.223 19.0482 201.655L14.4626 198.332C14.1126 198.079 13.6392 198.079 13.2892 198.332L8.70366 201.655C7.91941 202.223 6.86612 201.456 7.16614 200.535L8.91471 195.168C9.04917 194.756 8.90209 194.304 8.55063 194.049L3.97575 190.734C3.19075 190.165 3.59308 188.924 4.56247 188.924H10.2232C10.6562 188.924 11.0399 188.646 11.174 188.234L12.9251 182.86Z" fill="#070707"/>
<path d="M48.0222 182.86C48.322 181.94 49.6239 181.94 49.9238 182.86L51.6749 188.234C51.809 188.646 52.1928 188.924 52.6257 188.924H58.2864C59.2558 188.924 59.6582 190.165 58.8732 190.734L54.2983 194.049C53.9468 194.304 53.7997 194.756 53.9342 195.168L55.6828 200.535C55.9828 201.456 54.9295 202.223 54.1452 201.655L49.5597 198.332C49.2097 198.079 48.7363 198.079 48.3863 198.332L43.8007 201.655C43.0165 202.223 41.9632 201.456 42.2632 200.535L44.0118 195.168C44.1462 194.756 43.9991 194.304 43.6477 194.049L39.0728 190.734C38.2878 190.165 38.6901 188.924 39.6595 188.924H45.3203C45.7532 188.924 46.137 188.646 46.2711 188.234L48.0222 182.86Z" fill="#070707"/>
<path d="M83.1193 182.86C83.4192 181.94 84.7211 181.94 85.0209 182.86L86.772 188.234C86.9062 188.646 87.2899 188.924 87.7228 188.924H93.3836C94.353 188.924 94.7553 190.165 93.9703 190.734L89.3954 194.049C89.044 194.304 88.8969 194.756 89.0314 195.168L90.7799 200.535C91.08 201.456 90.0267 202.223 89.2424 201.655L84.6569 198.332C84.3068 198.079 83.8335 198.079 83.4834 198.332L78.8979 201.655C78.1136 202.223 77.0603 201.456 77.3604 200.535L79.1089 195.168C79.2434 194.756 79.0963 194.304 78.7448 194.049L74.17 190.734C73.385 190.165 73.7873 188.924 74.7567 188.924H80.4174C80.8504 188.924 81.2341 188.646 81.3682 188.234L83.1193 182.86Z" fill="#070707"/>
<path d="M118.216 182.86C118.516 181.94 119.818 181.94 120.118 182.86L121.869 188.234C122.003 188.646 122.387 188.924 122.82 188.924H128.481C129.45 188.924 129.852 190.165 129.067 190.734L124.492 194.049C124.141 194.304 123.994 194.756 124.128 195.168L125.877 200.535C126.177 201.456 125.124 202.223 124.339 201.655L119.754 198.332C119.404 198.079 118.931 198.079 118.58 198.332L113.995 201.655C113.211 202.223 112.157 201.456 112.457 200.535L114.206 195.168C114.34 194.756 114.193 194.304 113.842 194.049L109.267 190.734C108.482 190.165 108.884 188.924 109.854 188.924H115.514C115.947 188.924 116.331 188.646 116.465 188.234L118.216 182.86Z" fill="#070707"/>
<path d="M153.314 182.86C153.613 181.94 154.915 181.94 155.215 182.86L156.966 188.234C157.1 188.646 157.484 188.924 157.917 188.924H163.578C164.547 188.924 164.95 190.165 164.165 190.734L159.59 194.049C159.238 194.304 159.091 194.756 159.226 195.168L160.974 200.535C161.274 201.456 160.221 202.223 159.437 201.655L154.851 198.332C154.501 198.079 154.028 198.079 153.678 198.332L149.092 201.655C148.308 202.223 147.255 201.456 147.555 200.535L149.303 195.168C149.438 194.756 149.291 194.304 148.939 194.049L144.364 190.734C143.579 190.165 143.982 188.924 144.951 188.924H150.612C151.045 188.924 151.428 188.646 151.562 188.234L153.314 182.86Z" fill="#E5E5E5"/>
<defs>
<clipPath id="clip0_2_208">
<rect width="58.2524" height="88.9906" fill="white" transform="translate(57.4927 0.669922)"/>
</clipPath>
</defs>
</svg>
