<svg width="39" height="42" viewBox="0 0 39 42" fill="none" xmlns="http://www.w3.org/2000/svg">
<path d="M34.8214 0.875H4.17857C1.87165 0.875 0 2.80664 0 5.1875V36.8125C0 39.1934 1.87165 41.125 4.17857 41.125H34.8214C37.1283 41.125 39 39.1934 39 36.8125V5.1875C39 2.80664 37.1283 0.875 34.8214 0.875ZM24.14 35.348C23.4087 35.4828 23.1388 35.0156 23.1388 34.6293C23.1388 34.1441 23.1562 31.6645 23.1562 29.6609C23.1562 28.2594 22.7036 27.3699 22.1725 26.9027C25.3935 26.5344 28.7886 26.0762 28.7886 20.3352C28.7886 18.7 28.2228 17.8824 27.3 16.8313C27.448 16.4449 27.9442 14.8547 27.152 12.7883C25.942 12.402 23.1737 14.3965 23.1737 14.3965C22.0246 14.0641 20.7797 13.8934 19.5522 13.8934C18.3248 13.8934 17.0799 14.0641 15.9308 14.3965C15.9308 14.3965 13.1625 12.402 11.9525 12.7883C11.1603 14.8457 11.6478 16.4359 11.8045 16.8313C10.8817 17.8824 10.4464 18.7 10.4464 20.3352C10.4464 26.0492 13.6935 26.5344 16.9145 26.9027C16.4967 27.2891 16.1223 27.9539 15.9917 28.9062C15.1647 29.2926 13.0493 29.9574 11.7871 27.6574C10.9949 26.2379 9.56719 26.1211 9.56719 26.1211C8.15692 26.1031 9.47143 27.0375 9.47143 27.0375C10.4116 27.4867 11.0732 29.2117 11.0732 29.2117C11.9176 31.8801 15.9569 30.9816 15.9569 30.9816C15.9569 32.2305 15.9743 34.2609 15.9743 34.6293C15.9743 35.0156 15.7132 35.4828 14.9732 35.348C9.22768 33.3625 5.2058 27.7203 5.2058 21.1258C5.2058 12.8781 11.317 6.61602 19.3085 6.61602C27.3 6.61602 33.7768 12.8781 33.7768 21.1258C33.7855 27.7203 29.8855 33.3715 24.14 35.348ZM15.6 29.8586C15.4346 29.8945 15.2779 29.8227 15.2605 29.7059C15.2431 29.5711 15.3563 29.4543 15.5217 29.4184C15.6871 29.4004 15.8438 29.4723 15.8612 29.5891C15.8873 29.7059 15.7741 29.8227 15.6 29.8586ZM14.773 29.7777C14.773 29.8945 14.6424 29.9934 14.4683 29.9934C14.2768 30.0113 14.1462 29.9125 14.1462 29.7777C14.1462 29.6609 14.2768 29.5621 14.4509 29.5621C14.6163 29.5441 14.773 29.643 14.773 29.7777ZM13.5804 29.6789C13.5455 29.7957 13.3714 29.8496 13.2234 29.7957C13.058 29.7598 12.9449 29.625 12.9797 29.5082C13.0145 29.3914 13.1886 29.3375 13.3366 29.3734C13.5107 29.4273 13.6239 29.5621 13.5804 29.6789ZM12.5096 29.1938C12.4313 29.2926 12.2658 29.2746 12.1353 29.1398C12.0047 29.023 11.9699 28.8523 12.0569 28.7715C12.1353 28.6727 12.3007 28.6906 12.4313 28.8254C12.5444 28.9422 12.5879 29.1219 12.5096 29.1938ZM11.7174 28.3762C11.6391 28.4301 11.4911 28.3762 11.3953 28.2414C11.2996 28.1066 11.2996 27.9539 11.3953 27.891C11.4911 27.8102 11.6391 27.873 11.7174 28.0078C11.8132 28.1426 11.8132 28.3043 11.7174 28.3762ZM11.1516 27.5047C11.0732 27.5855 10.9426 27.5406 10.8469 27.4508C10.7511 27.334 10.7337 27.1992 10.8121 27.1363C10.8904 27.0555 11.021 27.1004 11.1167 27.1902C11.2125 27.307 11.2299 27.4418 11.1516 27.5047ZM10.5683 26.8398C10.5335 26.9207 10.4203 26.9387 10.3246 26.8758C10.2114 26.8219 10.1592 26.723 10.194 26.6422C10.2288 26.5883 10.3246 26.5613 10.4377 26.6062C10.5509 26.6691 10.6031 26.768 10.5683 26.8398Z" fill="black"/>
</svg>
