<svg width="167" height="207" viewBox="0 0 167 207" fill="none" xmlns="http://www.w3.org/2000/svg">
<path d="M58.7795 126.112C58.5555 126.112 58.3735 126.061 58.2335 125.958C58.1028 125.855 58.0235 125.72 57.9955 125.552C57.9675 125.375 58.0002 125.179 58.0935 124.964L61.7895 116.774C61.9108 116.503 62.0555 116.312 62.2235 116.2C62.4008 116.079 62.6015 116.018 62.8255 116.018C63.0402 116.018 63.2315 116.079 63.3995 116.2C63.5768 116.312 63.7262 116.503 63.8475 116.774L67.5575 124.964C67.6602 125.179 67.6975 125.375 67.6695 125.552C67.6415 125.729 67.5622 125.869 67.4315 125.972C67.3008 126.065 67.1282 126.112 66.9135 126.112C66.6522 126.112 66.4468 126.051 66.2975 125.93C66.1575 125.799 66.0315 125.603 65.9195 125.342L65.0095 123.228L65.7655 123.718H59.8575L60.6135 123.228L59.7175 125.342C59.5962 125.613 59.4702 125.809 59.3395 125.93C59.2088 126.051 59.0222 126.112 58.7795 126.112ZM62.7975 118.076L60.8375 122.738L60.4735 122.29H65.1495L64.7995 122.738L62.8255 118.076H62.7975ZM71.4951 126.14C70.8978 126.14 70.3705 125.995 69.9131 125.706C69.4651 125.417 69.1151 125.006 68.8631 124.474C68.6111 123.933 68.4851 123.298 68.4851 122.57C68.4851 121.833 68.6111 121.203 68.8631 120.68C69.1151 120.148 69.4651 119.737 69.9131 119.448C70.3705 119.159 70.8978 119.014 71.4951 119.014C72.0645 119.014 72.5591 119.154 72.9791 119.434C73.4085 119.714 73.6978 120.083 73.8471 120.54H73.6931V116.9C73.6931 116.611 73.7678 116.391 73.9171 116.242C74.0665 116.093 74.2811 116.018 74.5611 116.018C74.8411 116.018 75.0558 116.093 75.2051 116.242C75.3638 116.391 75.4431 116.611 75.4431 116.9V125.216C75.4431 125.505 75.3685 125.729 75.2191 125.888C75.0698 126.037 74.8551 126.112 74.5751 126.112C74.2951 126.112 74.0805 126.037 73.9311 125.888C73.7818 125.729 73.7071 125.505 73.7071 125.216V124.124L73.8611 124.544C73.7211 125.029 73.4365 125.417 73.0071 125.706C72.5778 125.995 72.0738 126.14 71.4951 126.14ZM71.9851 124.81C72.3305 124.81 72.6338 124.726 72.8951 124.558C73.1565 124.39 73.3571 124.143 73.4971 123.816C73.6465 123.48 73.7211 123.065 73.7211 122.57C73.7211 121.823 73.5625 121.268 73.2451 120.904C72.9278 120.531 72.5078 120.344 71.9851 120.344C71.6398 120.344 71.3365 120.428 71.0751 120.596C70.8138 120.755 70.6085 121.002 70.4591 121.338C70.3191 121.665 70.2491 122.075 70.2491 122.57C70.2491 123.307 70.4078 123.867 70.7251 124.25C71.0425 124.623 71.4625 124.81 71.9851 124.81ZM80.3797 126.14C79.6703 126.14 79.0543 125.995 78.5317 125.706C78.009 125.417 77.603 125.006 77.3137 124.474C77.0243 123.933 76.8797 123.298 76.8797 122.57C76.8797 122.019 76.959 121.529 77.1177 121.1C77.2857 120.661 77.5237 120.288 77.8317 119.98C78.1397 119.663 78.5083 119.425 78.9377 119.266C79.367 119.098 79.8477 119.014 80.3797 119.014C81.089 119.014 81.705 119.159 82.2277 119.448C82.7503 119.737 83.1563 120.148 83.4457 120.68C83.735 121.212 83.8797 121.842 83.8797 122.57C83.8797 123.121 83.7957 123.615 83.6277 124.054C83.469 124.493 83.2357 124.871 82.9277 125.188C82.6197 125.496 82.251 125.734 81.8217 125.902C81.3923 126.061 80.9117 126.14 80.3797 126.14ZM80.3797 124.81C80.725 124.81 81.0283 124.726 81.2897 124.558C81.551 124.39 81.7517 124.143 81.8917 123.816C82.041 123.48 82.1157 123.065 82.1157 122.57C82.1157 121.823 81.957 121.268 81.6397 120.904C81.3223 120.531 80.9023 120.344 80.3797 120.344C80.0343 120.344 79.731 120.428 79.4697 120.596C79.2083 120.755 79.003 121.002 78.8537 121.338C78.7137 121.665 78.6437 122.075 78.6437 122.57C78.6437 123.307 78.8023 123.867 79.1197 124.25C79.437 124.623 79.857 124.81 80.3797 124.81ZM89.2721 126.14C88.6934 126.14 88.1847 125.995 87.7461 125.706C87.3167 125.417 87.0321 125.029 86.8921 124.544L87.0461 124.194V125.216C87.0461 125.505 86.9714 125.729 86.8221 125.888C86.6727 126.037 86.4627 126.112 86.1921 126.112C85.9121 126.112 85.6974 126.037 85.5481 125.888C85.3987 125.729 85.3241 125.505 85.3241 125.216V116.9C85.3241 116.611 85.3987 116.391 85.5481 116.242C85.6974 116.093 85.9121 116.018 86.1921 116.018C86.4721 116.018 86.6867 116.093 86.8361 116.242C86.9947 116.391 87.0741 116.611 87.0741 116.9V120.54H86.9061C87.0554 120.083 87.3447 119.714 87.7741 119.434C88.2034 119.154 88.7027 119.014 89.2721 119.014C89.8787 119.014 90.4061 119.159 90.8541 119.448C91.3021 119.737 91.6521 120.148 91.9041 120.68C92.1561 121.203 92.2821 121.833 92.2821 122.57C92.2821 123.298 92.1561 123.933 91.9041 124.474C91.6521 125.006 91.2974 125.417 90.8401 125.706C90.3921 125.995 89.8694 126.14 89.2721 126.14ZM88.7821 124.81C89.1274 124.81 89.4307 124.726 89.6921 124.558C89.9534 124.39 90.1541 124.143 90.2941 123.816C90.4434 123.48 90.5181 123.065 90.5181 122.57C90.5181 121.823 90.3594 121.268 90.0421 120.904C89.7247 120.531 89.3047 120.344 88.7821 120.344C88.4367 120.344 88.1334 120.428 87.8721 120.596C87.6107 120.755 87.4054 121.002 87.2561 121.338C87.1161 121.665 87.0461 122.075 87.0461 122.57C87.0461 123.307 87.2047 123.867 87.5221 124.25C87.8394 124.623 88.2594 124.81 88.7821 124.81ZM97.0926 126.14C96.3179 126.14 95.6506 125.995 95.0906 125.706C94.5306 125.417 94.0966 125.006 93.7886 124.474C93.4899 123.942 93.3406 123.312 93.3406 122.584C93.3406 121.875 93.4853 121.254 93.7746 120.722C94.0733 120.19 94.4793 119.775 94.9926 119.476C95.5153 119.168 96.1079 119.014 96.7706 119.014C97.2559 119.014 97.6899 119.093 98.0726 119.252C98.4646 119.411 98.7959 119.639 99.0666 119.938C99.3466 120.237 99.5566 120.601 99.6966 121.03C99.8459 121.45 99.9206 121.926 99.9206 122.458C99.9206 122.626 99.8599 122.757 99.7386 122.85C99.6266 122.934 99.4633 122.976 99.2486 122.976H94.7546V121.968H98.6886L98.4646 122.178C98.4646 121.749 98.3993 121.389 98.2686 121.1C98.1473 120.811 97.9653 120.591 97.7226 120.442C97.4893 120.283 97.1953 120.204 96.8406 120.204C96.4486 120.204 96.1126 120.297 95.8326 120.484C95.5619 120.661 95.3519 120.918 95.2026 121.254C95.0626 121.581 94.9926 121.973 94.9926 122.43V122.528C94.9926 123.293 95.1699 123.867 95.5246 124.25C95.8886 124.623 96.4206 124.81 97.1206 124.81C97.3633 124.81 97.6339 124.782 97.9326 124.726C98.2406 124.661 98.5299 124.553 98.8006 124.404C98.9966 124.292 99.1693 124.245 99.3186 124.264C99.4679 124.273 99.5846 124.325 99.6686 124.418C99.7619 124.511 99.8179 124.628 99.8366 124.768C99.8553 124.899 99.8273 125.034 99.7526 125.174C99.6873 125.314 99.5706 125.435 99.4026 125.538C99.0759 125.743 98.6979 125.897 98.2686 126C97.8486 126.093 97.4566 126.14 97.0926 126.14ZM48.4418 141.112C48.1524 141.112 47.9284 141.033 47.7698 140.874C47.6204 140.706 47.5458 140.477 47.5458 140.188V131.942C47.5458 131.643 47.6204 131.415 47.7698 131.256C47.9284 131.097 48.1524 131.018 48.4418 131.018C48.7311 131.018 48.9504 131.097 49.0998 131.256C49.2584 131.415 49.3378 131.643 49.3378 131.942V140.188C49.3378 140.477 49.2631 140.706 49.1138 140.874C48.9644 141.033 48.7404 141.112 48.4418 141.112ZM53.6669 141.14C52.8923 141.14 52.3089 140.921 51.9169 140.482C51.5249 140.034 51.3289 139.381 51.3289 138.522V131.9C51.3289 131.611 51.4036 131.391 51.5529 131.242C51.7023 131.093 51.9169 131.018 52.1969 131.018C52.4769 131.018 52.6916 131.093 52.8409 131.242C52.9996 131.391 53.0789 131.611 53.0789 131.9V138.438C53.0789 138.867 53.1676 139.185 53.3449 139.39C53.5316 139.595 53.7929 139.698 54.1289 139.698C54.2036 139.698 54.2736 139.698 54.3389 139.698C54.4043 139.689 54.4696 139.679 54.5349 139.67C54.6656 139.651 54.7543 139.689 54.8009 139.782C54.8476 139.866 54.8709 140.043 54.8709 140.314C54.8709 140.547 54.8243 140.729 54.7309 140.86C54.6376 140.991 54.4836 141.07 54.2689 141.098C54.1756 141.107 54.0776 141.117 53.9749 141.126C53.8723 141.135 53.7696 141.14 53.6669 141.14ZM58.1376 141.14C57.363 141.14 56.7796 140.921 56.3876 140.482C55.9956 140.034 55.7996 139.381 55.7996 138.522V131.9C55.7996 131.611 55.8743 131.391 56.0236 131.242C56.173 131.093 56.3876 131.018 56.6676 131.018C56.9476 131.018 57.1623 131.093 57.3116 131.242C57.4703 131.391 57.5496 131.611 57.5496 131.9V138.438C57.5496 138.867 57.6383 139.185 57.8156 139.39C58.0023 139.595 58.2636 139.698 58.5996 139.698C58.6743 139.698 58.7443 139.698 58.8096 139.698C58.875 139.689 58.9403 139.679 59.0056 139.67C59.1363 139.651 59.225 139.689 59.2716 139.782C59.3183 139.866 59.3416 140.043 59.3416 140.314C59.3416 140.547 59.295 140.729 59.2016 140.86C59.1083 140.991 58.9543 141.07 58.7396 141.098C58.6463 141.107 58.5483 141.117 58.4456 141.126C58.343 141.135 58.2403 141.14 58.1376 141.14ZM62.7484 141.14C62.179 141.14 61.7077 141.037 61.3344 140.832C60.961 140.617 60.681 140.3 60.4944 139.88C60.317 139.46 60.2284 138.937 60.2284 138.312V134.924C60.2284 134.625 60.303 134.406 60.4524 134.266C60.6017 134.117 60.8164 134.042 61.0964 134.042C61.3764 134.042 61.591 134.117 61.7404 134.266C61.899 134.406 61.9784 134.625 61.9784 134.924V138.34C61.9784 138.825 62.0764 139.185 62.2724 139.418C62.4684 139.651 62.781 139.768 63.2104 139.768C63.677 139.768 64.0597 139.609 64.3584 139.292C64.657 138.965 64.8064 138.536 64.8064 138.004V134.924C64.8064 134.625 64.881 134.406 65.0304 134.266C65.1797 134.117 65.3944 134.042 65.6744 134.042C65.9544 134.042 66.169 134.117 66.3184 134.266C66.477 134.406 66.5564 134.625 66.5564 134.924V140.216C66.5564 140.813 66.2717 141.112 65.7024 141.112C65.4317 141.112 65.2217 141.037 65.0724 140.888C64.923 140.729 64.8484 140.505 64.8484 140.216V139.152L65.0444 139.572C64.8484 140.076 64.5497 140.463 64.1484 140.734C63.7564 141.005 63.2897 141.14 62.7484 141.14ZM70.8838 141.14C70.4824 141.14 70.0578 141.098 69.6098 141.014C69.1618 140.93 68.7604 140.785 68.4058 140.58C68.2564 140.487 68.1491 140.379 68.0838 140.258C68.0278 140.127 68.0044 140.001 68.0138 139.88C68.0324 139.749 68.0791 139.637 68.1538 139.544C68.2378 139.451 68.3404 139.39 68.4618 139.362C68.5924 139.334 68.7324 139.357 68.8818 139.432C69.2551 139.609 69.6051 139.735 69.9318 139.81C70.2584 139.875 70.5804 139.908 70.8978 139.908C71.3458 139.908 71.6771 139.833 71.8918 139.684C72.1158 139.525 72.2278 139.32 72.2278 139.068C72.2278 138.853 72.1531 138.69 72.0038 138.578C71.8638 138.457 71.6491 138.368 71.3598 138.312L69.9598 138.046C69.3811 137.934 68.9378 137.724 68.6298 137.416C68.3311 137.099 68.1818 136.693 68.1818 136.198C68.1818 135.75 68.3031 135.363 68.5458 135.036C68.7978 134.709 69.1431 134.457 69.5818 134.28C70.0204 134.103 70.5244 134.014 71.0938 134.014C71.5044 134.014 71.8871 134.061 72.2418 134.154C72.6058 134.238 72.9558 134.373 73.2918 134.56C73.4318 134.635 73.5251 134.733 73.5718 134.854C73.6278 134.975 73.6418 135.101 73.6138 135.232C73.5858 135.353 73.5298 135.465 73.4458 135.568C73.3618 135.661 73.2544 135.722 73.1238 135.75C73.0024 135.769 72.8624 135.741 72.7038 135.666C72.4144 135.517 72.1344 135.409 71.8638 135.344C71.6024 135.279 71.3504 135.246 71.1078 135.246C70.6504 135.246 70.3098 135.325 70.0858 135.484C69.8711 135.643 69.7638 135.853 69.7638 136.114C69.7638 136.31 69.8291 136.473 69.9598 136.604C70.0904 136.735 70.2911 136.823 70.5618 136.87L71.9618 137.136C72.5684 137.248 73.0258 137.453 73.3338 137.752C73.6511 138.051 73.8098 138.452 73.8098 138.956C73.8098 139.637 73.5438 140.174 73.0118 140.566C72.4798 140.949 71.7704 141.14 70.8838 141.14ZM78.2814 141.14C77.6747 141.14 77.166 141.037 76.7554 140.832C76.354 140.627 76.0554 140.328 75.8594 139.936C75.6634 139.535 75.5654 139.04 75.5654 138.452V135.47H74.8374C74.6134 135.47 74.4407 135.414 74.3194 135.302C74.198 135.181 74.1374 135.017 74.1374 134.812C74.1374 134.597 74.198 134.434 74.3194 134.322C74.4407 134.21 74.6134 134.154 74.8374 134.154H75.5654V132.88C75.5654 132.591 75.64 132.371 75.7894 132.222C75.948 132.073 76.1674 131.998 76.4474 131.998C76.7274 131.998 76.942 132.073 77.0914 132.222C77.2407 132.371 77.3154 132.591 77.3154 132.88V134.154H78.7994C79.0234 134.154 79.196 134.21 79.3174 134.322C79.4387 134.434 79.4994 134.597 79.4994 134.812C79.4994 135.017 79.4387 135.181 79.3174 135.302C79.196 135.414 79.0234 135.47 78.7994 135.47H77.3154V138.354C77.3154 138.802 77.4134 139.138 77.6094 139.362C77.8054 139.586 78.1227 139.698 78.5614 139.698C78.72 139.698 78.86 139.684 78.9814 139.656C79.1027 139.628 79.21 139.609 79.3034 139.6C79.4154 139.591 79.5087 139.628 79.5834 139.712C79.658 139.787 79.6954 139.945 79.6954 140.188C79.6954 140.375 79.6627 140.543 79.5974 140.692C79.5414 140.832 79.434 140.93 79.2754 140.986C79.154 141.023 78.9954 141.056 78.7994 141.084C78.6034 141.121 78.4307 141.14 78.2814 141.14ZM81.4144 141.112C81.1251 141.112 80.9011 141.037 80.7424 140.888C80.5931 140.729 80.5184 140.505 80.5184 140.216V134.924C80.5184 134.635 80.5931 134.415 80.7424 134.266C80.8917 134.117 81.1017 134.042 81.3724 134.042C81.6431 134.042 81.8531 134.117 82.0024 134.266C82.1517 134.415 82.2264 134.635 82.2264 134.924V135.806H82.0864C82.2171 135.246 82.4737 134.821 82.8564 134.532C83.2391 134.243 83.7477 134.07 84.3824 134.014C84.5784 133.995 84.7324 134.047 84.8444 134.168C84.9657 134.28 85.0357 134.457 85.0544 134.7C85.0731 134.933 85.0171 135.125 84.8864 135.274C84.7651 135.414 84.5784 135.498 84.3264 135.526L84.0184 135.554C83.4491 135.61 83.0197 135.787 82.7304 136.086C82.4411 136.375 82.2964 136.786 82.2964 137.318V140.216C82.2964 140.505 82.2217 140.729 82.0724 140.888C81.9231 141.037 81.7037 141.112 81.4144 141.112ZM88.1865 141.14C87.6918 141.14 87.2485 141.047 86.8565 140.86C86.4738 140.664 86.1705 140.403 85.9465 140.076C85.7318 139.749 85.6245 139.381 85.6245 138.97C85.6245 138.466 85.7551 138.069 86.0165 137.78C86.2778 137.481 86.7025 137.267 87.2905 137.136C87.8785 137.005 88.6671 136.94 89.6565 136.94H90.3565V137.948H89.6705C89.0918 137.948 88.6298 137.976 88.2845 138.032C87.9391 138.088 87.6918 138.186 87.5425 138.326C87.4025 138.457 87.3325 138.643 87.3325 138.886C87.3325 139.194 87.4398 139.446 87.6545 139.642C87.8691 139.838 88.1678 139.936 88.5505 139.936C88.8585 139.936 89.1291 139.866 89.3625 139.726C89.6051 139.577 89.7965 139.376 89.9365 139.124C90.0765 138.872 90.1465 138.583 90.1465 138.256V136.646C90.1465 136.179 90.0438 135.843 89.8385 135.638C89.6331 135.433 89.2878 135.33 88.8025 135.33C88.5318 135.33 88.2378 135.363 87.9205 135.428C87.6125 135.493 87.2858 135.605 86.9405 135.764C86.7631 135.848 86.6045 135.871 86.4645 135.834C86.3338 135.797 86.2311 135.722 86.1565 135.61C86.0818 135.489 86.0445 135.358 86.0445 135.218C86.0445 135.078 86.0818 134.943 86.1565 134.812C86.2311 134.672 86.3571 134.569 86.5345 134.504C86.9638 134.327 87.3745 134.201 87.7665 134.126C88.1678 134.051 88.5318 134.014 88.8585 134.014C89.5305 134.014 90.0811 134.117 90.5105 134.322C90.9491 134.527 91.2758 134.84 91.4905 135.26C91.7051 135.671 91.8125 136.203 91.8125 136.856V140.216C91.8125 140.505 91.7425 140.729 91.6025 140.888C91.4625 141.037 91.2618 141.112 91.0005 141.112C90.7391 141.112 90.5338 141.037 90.3845 140.888C90.2445 140.729 90.1745 140.505 90.1745 140.216V139.544H90.2865C90.2211 139.871 90.0905 140.155 89.8945 140.398C89.7078 140.631 89.4698 140.813 89.1805 140.944C88.8911 141.075 88.5598 141.14 88.1865 141.14ZM96.7247 141.14C96.118 141.14 95.6094 141.037 95.1987 140.832C94.7974 140.627 94.4987 140.328 94.3027 139.936C94.1067 139.535 94.0087 139.04 94.0087 138.452V135.47H93.2807C93.0567 135.47 92.884 135.414 92.7627 135.302C92.6414 135.181 92.5807 135.017 92.5807 134.812C92.5807 134.597 92.6414 134.434 92.7627 134.322C92.884 134.21 93.0567 134.154 93.2807 134.154H94.0087V132.88C94.0087 132.591 94.0834 132.371 94.2327 132.222C94.3914 132.073 94.6107 131.998 94.8907 131.998C95.1707 131.998 95.3854 132.073 95.5347 132.222C95.684 132.371 95.7587 132.591 95.7587 132.88V134.154H97.2427C97.4667 134.154 97.6394 134.21 97.7607 134.322C97.882 134.434 97.9427 134.597 97.9427 134.812C97.9427 135.017 97.882 135.181 97.7607 135.302C97.6394 135.414 97.4667 135.47 97.2427 135.47H95.7587V138.354C95.7587 138.802 95.8567 139.138 96.0527 139.362C96.2487 139.586 96.566 139.698 97.0047 139.698C97.1634 139.698 97.3034 139.684 97.4247 139.656C97.546 139.628 97.6534 139.609 97.7467 139.6C97.8587 139.591 97.952 139.628 98.0267 139.712C98.1014 139.787 98.1387 139.945 98.1387 140.188C98.1387 140.375 98.106 140.543 98.0407 140.692C97.9847 140.832 97.8774 140.93 97.7187 140.986C97.5974 141.023 97.4387 141.056 97.2427 141.084C97.0467 141.121 96.874 141.14 96.7247 141.14ZM102.015 141.14C101.306 141.14 100.69 140.995 100.167 140.706C99.6447 140.417 99.2387 140.006 98.9494 139.474C98.6601 138.933 98.5154 138.298 98.5154 137.57C98.5154 137.019 98.5947 136.529 98.7534 136.1C98.9214 135.661 99.1594 135.288 99.4674 134.98C99.7754 134.663 100.144 134.425 100.573 134.266C101.003 134.098 101.483 134.014 102.015 134.014C102.725 134.014 103.341 134.159 103.863 134.448C104.386 134.737 104.792 135.148 105.081 135.68C105.371 136.212 105.515 136.842 105.515 137.57C105.515 138.121 105.431 138.615 105.263 139.054C105.105 139.493 104.871 139.871 104.563 140.188C104.255 140.496 103.887 140.734 103.457 140.902C103.028 141.061 102.547 141.14 102.015 141.14ZM102.015 139.81C102.361 139.81 102.664 139.726 102.925 139.558C103.187 139.39 103.387 139.143 103.527 138.816C103.677 138.48 103.751 138.065 103.751 137.57C103.751 136.823 103.593 136.268 103.275 135.904C102.958 135.531 102.538 135.344 102.015 135.344C101.67 135.344 101.367 135.428 101.105 135.596C100.844 135.755 100.639 136.002 100.489 136.338C100.349 136.665 100.279 137.075 100.279 137.57C100.279 138.307 100.438 138.867 100.755 139.25C101.073 139.623 101.493 139.81 102.015 139.81ZM107.856 141.112C107.566 141.112 107.342 141.037 107.184 140.888C107.034 140.729 106.96 140.505 106.96 140.216V134.924C106.96 134.635 107.034 134.415 107.184 134.266C107.333 134.117 107.543 134.042 107.814 134.042C108.084 134.042 108.294 134.117 108.444 134.266C108.593 134.415 108.668 134.635 108.668 134.924V135.806H108.528C108.658 135.246 108.915 134.821 109.298 134.532C109.68 134.243 110.189 134.07 110.824 134.014C111.02 133.995 111.174 134.047 111.286 134.168C111.407 134.28 111.477 134.457 111.496 134.7C111.514 134.933 111.458 135.125 111.328 135.274C111.206 135.414 111.02 135.498 110.768 135.526L110.46 135.554C109.89 135.61 109.461 135.787 109.172 136.086C108.882 136.375 108.738 136.786 108.738 137.318V140.216C108.738 140.505 108.663 140.729 108.514 140.888C108.364 141.037 108.145 141.112 107.856 141.112Z" fill="#828282"/>
<path d="M43.0704 4.45367H124.831V85.4586H43.0704V4.45367Z" fill="url(#paint0_radial_2_197)"/>
<path d="M39.3607 4.11383H121.121V85.1187H39.3607V4.11383Z" fill="url(#paint1_radial_2_197)"/>
<path d="M39.3607 4.11382H121.121V85.1187H39.3607V4.11382ZM35.6451 88.9025H124.855V0.330078H35.6451V88.9025ZM94.0761 31.9098C94.0761 31.6006 94.1833 31.455 94.5227 31.455H100.364C100.668 31.455 100.811 31.5642 100.811 31.9098V61.7796C100.811 62.0888 100.739 62.2343 100.364 62.2343H94.5941C94.219 62.2343 94.1118 62.0524 94.1118 61.7432V31.9098H94.0761ZM93.6652 23.3054C93.6652 20.886 95.3444 19.4489 97.4523 19.4489C99.7209 19.4489 101.239 20.9951 101.239 23.3054C101.239 25.7976 99.6495 27.1619 97.3808 27.1619C95.2372 27.1801 93.6652 25.8158 93.6652 23.3054ZM76.9452 44.3525C75.9091 40.1504 73.4439 31.0002 72.5151 26.5616H72.4436C71.6576 30.9821 69.6926 38.4768 68.1385 44.3525H76.9452ZM66.6202 50.4829L63.6906 61.8341C63.6191 62.1434 63.5119 62.2161 63.1368 62.2161H57.6706C57.2955 62.2161 57.224 62.107 57.2955 61.6522L67.8527 24.0331C68.0314 23.36 68.1564 22.7415 68.2279 20.886C68.2279 20.6131 68.335 20.504 68.5315 20.504H76.3378C76.6058 20.504 76.7129 20.5768 76.7844 20.886L88.6099 61.725C88.6814 62.0342 88.6099 62.2161 88.3062 62.2161H82.1434C81.8397 62.2161 81.6611 62.1434 81.5896 61.8705L78.535 50.4829H66.6202Z" fill="#FF7F18"/>
<path d="M12.2142 183.86C12.514 182.94 13.816 182.94 14.1158 183.86L15.8669 189.234C16.001 189.646 16.3848 189.924 16.8177 189.924H22.4785C23.4478 189.924 23.8502 191.165 23.0652 191.734L18.4903 195.049C18.1388 195.304 17.9918 195.756 18.1262 196.168L19.8748 201.535C20.1748 202.456 19.1215 203.223 18.3373 202.655L13.7517 199.332C13.4017 199.079 12.9283 199.079 12.5783 199.332L7.99273 202.655C7.20847 203.223 6.15518 202.456 6.4552 201.535L8.20377 196.168C8.33823 195.756 8.19115 195.304 7.83969 195.049L3.26482 191.734C2.47981 191.165 2.88214 189.924 3.85153 189.924H9.51229C9.94522 189.924 10.329 189.646 10.4631 189.234L12.2142 183.86Z" fill="#070707"/>
<path d="M47.3115 183.86C47.6113 182.939 48.9132 182.939 49.2131 183.86L50.9642 189.234C51.0983 189.646 51.4821 189.924 51.915 189.924H57.5757C58.5451 189.924 58.9475 191.165 58.1625 191.734L53.5876 195.049C53.2361 195.303 53.089 195.756 53.2235 196.168L54.9721 201.535C55.2721 202.456 54.2188 203.223 53.4345 202.654L48.849 199.332C48.499 199.078 48.0256 199.078 47.6756 199.332L43.09 202.654C42.3058 203.223 41.2525 202.456 41.5525 201.535L43.3011 196.168C43.4355 195.756 43.2884 195.303 42.937 195.049L38.3621 191.734C37.5771 191.165 37.9794 189.924 38.9488 189.924H44.6096C45.0425 189.924 45.4263 189.646 45.5604 189.234L47.3115 183.86Z" fill="#070707"/>
<path d="M82.4086 183.86C82.7085 182.939 84.0104 182.939 84.3103 183.86L86.0613 189.234C86.1955 189.646 86.5792 189.924 87.0122 189.924H92.6729C93.6423 189.924 94.0446 191.165 93.2596 191.734L88.6848 195.049C88.3333 195.303 88.1862 195.756 88.3207 196.168L90.0692 201.535C90.3693 202.456 89.316 203.223 88.5317 202.654L83.9462 199.332C83.5961 199.078 83.1228 199.078 82.7727 199.332L78.1872 202.654C77.4029 203.223 76.3496 202.456 76.6497 201.535L78.3982 196.168C78.5327 195.756 78.3856 195.303 78.0341 195.049L73.4593 191.734C72.6743 191.165 73.0766 189.924 74.046 189.924H79.7067C80.1397 189.924 80.5234 189.646 80.6576 189.234L82.4086 183.86Z" fill="#070707"/>
<path d="M117.506 183.86C117.806 182.939 119.108 182.939 119.407 183.86L121.159 189.234C121.293 189.646 121.676 189.924 122.109 189.924H127.77C128.739 189.924 129.142 191.165 128.357 191.734L123.782 195.049C123.43 195.303 123.283 195.756 123.418 196.168L125.166 201.535C125.466 202.456 124.413 203.223 123.629 202.654L119.043 199.332C118.693 199.078 118.22 199.078 117.87 199.332L113.284 202.654C112.5 203.223 111.447 202.456 111.747 201.535L113.495 196.168C113.63 195.756 113.483 195.303 113.131 195.049L108.556 191.734C107.771 191.165 108.174 189.924 109.143 189.924H114.804C115.237 189.924 115.621 189.646 115.755 189.234L117.506 183.86Z" fill="#070707"/>
<path d="M152.603 183.86C152.903 182.939 154.205 182.939 154.505 183.86L156.256 189.234C156.39 189.646 156.774 189.924 157.206 189.924H162.867C163.837 189.924 164.239 191.165 163.454 191.734L158.879 195.049C158.528 195.303 158.381 195.756 158.515 196.168L160.264 201.535C160.564 202.456 159.51 203.223 158.726 202.654L154.141 199.332C153.79 199.078 153.317 199.078 152.967 199.332L148.382 202.654C147.597 203.223 146.544 202.456 146.844 201.535L148.593 196.168C148.727 195.756 148.58 195.303 148.228 195.049L143.654 191.734C142.869 191.165 143.271 189.924 144.24 189.924H149.901C150.334 189.924 150.718 189.646 150.852 189.234L152.603 183.86Z" fill="#E5E5E5"/>
<defs>
<radialGradient id="paint0_radial_2_197" cx="0" cy="0" r="1" gradientUnits="userSpaceOnUse" gradientTransform="translate(70.0229 22.6149) scale(62.1407 61.2673)">
<stop stop-color="#442F55" stop-opacity="0.98"/>
<stop offset="1" stop-color="#12002C"/>
</radialGradient>
<radialGradient id="paint1_radial_2_197" cx="0" cy="0" r="1" gradientUnits="userSpaceOnUse" gradientTransform="translate(66.3153 22.2911) scale(62.1406 61.2673)">
<stop stop-color="#423325" stop-opacity="0.98"/>
<stop offset="1" stop-color="#1C0A00"/>
</radialGradient>
</defs>
</svg>
