<svg width="167" height="207" viewBox="0 0 167 207" fill="none" xmlns="http://www.w3.org/2000/svg">
<path d="M63.2638 120.168H63.1798C63.0772 120.476 62.9605 120.826 62.8298 121.218C62.6992 121.601 62.5592 122.002 62.4098 122.422C62.2698 122.842 62.1392 123.253 62.0178 123.654L61.7798 124.774C61.7238 124.951 61.6678 125.143 61.6118 125.348C61.5558 125.553 61.4952 125.754 61.4298 125.95C61.3738 126.146 61.3178 126.337 61.2618 126.524C61.2152 126.701 61.1732 126.86 61.1358 127C61.0332 127.037 60.9212 127.07 60.7998 127.098C60.6785 127.126 60.5292 127.14 60.3518 127.14C59.9972 127.14 59.7218 127.075 59.5258 126.944C59.3298 126.804 59.2318 126.608 59.2318 126.356C59.2318 126.244 59.2505 126.132 59.2878 126.02C59.3252 125.899 59.3625 125.763 59.3998 125.614C59.4932 125.306 59.6145 124.919 59.7638 124.452C59.9225 123.985 60.0952 123.481 60.2818 122.94C60.4685 122.389 60.6552 121.848 60.8418 121.316C61.0378 120.775 61.2198 120.275 61.3878 119.818C61.5558 119.361 61.6958 118.992 61.8078 118.712C61.9385 118.637 62.1345 118.567 62.3958 118.502C62.6665 118.427 62.9325 118.39 63.1938 118.39C63.5672 118.39 63.9032 118.446 64.2018 118.558C64.5005 118.661 64.6872 118.833 64.7618 119.076C64.9485 119.571 65.1492 120.149 65.3638 120.812C65.5785 121.465 65.7978 122.147 66.0218 122.856C66.2458 123.565 66.4558 124.256 66.6518 124.928C66.8572 125.6 67.0392 126.207 67.1978 126.748C67.1045 126.86 66.9645 126.949 66.7778 127.014C66.5912 127.089 66.3765 127.126 66.1338 127.126C65.7698 127.126 65.5132 127.065 65.3638 126.944C65.2145 126.813 65.1025 126.613 65.0278 126.342L64.5238 124.676L64.3138 123.584C64.1832 123.155 64.0525 122.73 63.9218 122.31C63.7912 121.89 63.6698 121.498 63.5578 121.134C63.4458 120.761 63.3478 120.439 63.2638 120.168ZM60.9118 125.068L61.6678 123.5H65.0278L65.2938 125.068H60.9118ZM72.6348 125.418V121.134H74.5808V125.656C74.5808 125.871 74.5341 126.053 74.4408 126.202C74.3474 126.342 74.2028 126.473 74.0068 126.594C73.7641 126.753 73.4421 126.893 73.0408 127.014C72.6394 127.145 72.1821 127.21 71.6688 127.21C70.9034 127.21 70.2408 127.084 69.6808 126.832C69.1301 126.571 68.7008 126.179 68.3928 125.656C68.0941 125.124 67.9448 124.466 67.9448 123.682C67.9448 122.861 68.0988 122.189 68.4068 121.666C68.7148 121.143 69.1301 120.756 69.6528 120.504C70.1754 120.243 70.7588 120.112 71.4028 120.112C71.7388 120.112 72.0421 120.154 72.3128 120.238C72.5834 120.313 72.8028 120.401 72.9708 120.504V122.128C72.8308 122.007 72.6488 121.899 72.4248 121.806C72.2101 121.703 71.9534 121.652 71.6548 121.652C71.3188 121.652 71.0201 121.722 70.7588 121.862C70.4974 122.002 70.2921 122.226 70.1428 122.534C70.0028 122.833 69.9328 123.22 69.9328 123.696C69.9328 124.368 70.0868 124.863 70.3948 125.18C70.7028 125.497 71.1228 125.656 71.6548 125.656C71.8788 125.656 72.0701 125.633 72.2288 125.586C72.3968 125.53 72.5321 125.474 72.6348 125.418ZM74.5808 121.526H72.6348V117.886C72.7094 117.867 72.8261 117.844 72.9848 117.816C73.1528 117.788 73.3254 117.774 73.5028 117.774C73.8854 117.774 74.1608 117.839 74.3288 117.97C74.4968 118.101 74.5808 118.339 74.5808 118.684V121.526ZM82.9841 123.654C82.9841 124.382 82.8395 125.012 82.5501 125.544C82.2608 126.076 81.8548 126.487 81.3321 126.776C80.8095 127.065 80.1935 127.21 79.4841 127.21C78.7748 127.21 78.1541 127.07 77.6221 126.79C77.0995 126.501 76.6935 126.09 76.4041 125.558C76.1148 125.026 75.9701 124.391 75.9701 123.654C75.9701 122.926 76.1148 122.301 76.4041 121.778C76.7028 121.246 77.1135 120.835 77.6361 120.546C78.1681 120.257 78.7841 120.112 79.4841 120.112C80.1841 120.112 80.7955 120.257 81.3181 120.546C81.8408 120.835 82.2468 121.246 82.5361 121.778C82.8348 122.31 82.9841 122.935 82.9841 123.654ZM79.4701 121.652C79.0128 121.652 78.6488 121.829 78.3781 122.184C78.1075 122.529 77.9721 123.019 77.9721 123.654C77.9721 124.307 78.1028 124.807 78.3641 125.152C78.6348 125.497 79.0081 125.67 79.4841 125.67C79.9508 125.67 80.3148 125.497 80.5761 125.152C80.8468 124.797 80.9821 124.298 80.9821 123.654C80.9821 123.029 80.8468 122.539 80.5761 122.184C80.3148 121.829 79.9461 121.652 79.4701 121.652ZM87.8169 120.112C88.4235 120.112 88.9695 120.243 89.4549 120.504C89.9495 120.765 90.3369 121.157 90.6169 121.68C90.9062 122.203 91.0509 122.856 91.0509 123.64C91.0509 124.415 90.8969 125.068 90.5889 125.6C90.2902 126.132 89.8702 126.533 89.3289 126.804C88.7875 127.075 88.1575 127.21 87.4389 127.21C86.8789 127.21 86.3935 127.14 85.9829 127C85.5722 126.869 85.2269 126.711 84.9469 126.524C84.7509 126.393 84.6062 126.249 84.5129 126.09C84.4195 125.922 84.3729 125.731 84.3729 125.516V121.036H86.3189V125.376C86.4309 125.441 86.5802 125.507 86.7669 125.572C86.9535 125.628 87.1729 125.656 87.4249 125.656C87.9102 125.656 88.3022 125.488 88.6009 125.152C88.8995 124.816 89.0489 124.312 89.0489 123.64C89.0489 122.949 88.9042 122.445 88.6149 122.128C88.3255 121.811 87.9429 121.652 87.4669 121.652C87.1495 121.652 86.8695 121.713 86.6269 121.834C86.3935 121.946 86.1929 122.072 86.0249 122.212L85.9549 120.644C86.1695 120.513 86.4309 120.392 86.7389 120.28C87.0562 120.168 87.4155 120.112 87.8169 120.112ZM86.3189 121.498H84.3729V117.886C84.4569 117.867 84.5782 117.844 84.7369 117.816C84.8955 117.788 85.0682 117.774 85.2549 117.774C85.6282 117.774 85.8989 117.839 86.0669 117.97C86.2349 118.101 86.3189 118.339 86.3189 118.684V121.498ZM93.3073 124.606L93.2233 123.262L96.8073 122.716C96.7793 122.417 96.6533 122.151 96.4293 121.918C96.2146 121.685 95.8973 121.568 95.4773 121.568C95.0293 121.568 94.6606 121.717 94.3713 122.016C94.082 122.315 93.928 122.744 93.9093 123.304L93.9653 124.186C94.0493 124.727 94.2733 125.119 94.6373 125.362C95.0013 125.605 95.4446 125.726 95.9673 125.726C96.3593 125.726 96.7233 125.67 97.0593 125.558C97.4046 125.446 97.68 125.325 97.8853 125.194C98.016 125.278 98.1233 125.39 98.2073 125.53C98.3006 125.67 98.3473 125.819 98.3473 125.978C98.3473 126.239 98.2353 126.463 98.0113 126.65C97.7966 126.837 97.5026 126.977 97.1293 127.07C96.756 127.163 96.3266 127.21 95.8413 127.21C95.1133 127.21 94.4646 127.075 93.8953 126.804C93.3353 126.533 92.892 126.127 92.5653 125.586C92.248 125.045 92.0893 124.373 92.0893 123.57C92.0893 122.991 92.1826 122.483 92.3693 122.044C92.556 121.605 92.8033 121.246 93.1113 120.966C93.4286 120.677 93.788 120.462 94.1893 120.322C94.6 120.182 95.0246 120.112 95.4633 120.112C96.098 120.112 96.6486 120.238 97.1153 120.49C97.5913 120.742 97.9646 121.087 98.2353 121.526C98.506 121.965 98.6413 122.469 98.6413 123.038C98.6413 123.318 98.5666 123.533 98.4173 123.682C98.268 123.822 98.0626 123.911 97.8013 123.948L93.3073 124.606ZM48.2215 136.19H50.2235V141.986C50.1395 142.005 50.0089 142.028 49.8315 142.056C49.6542 142.084 49.4722 142.098 49.2855 142.098C48.9029 142.098 48.6275 142.028 48.4595 141.888C48.3009 141.739 48.2215 141.496 48.2215 141.16V136.19ZM50.2235 138.64H48.2215V133.502C48.3055 133.483 48.4362 133.46 48.6135 133.432C48.7909 133.395 48.9682 133.376 49.1455 133.376C49.5189 133.376 49.7895 133.446 49.9575 133.586C50.1349 133.717 50.2235 133.964 50.2235 134.328V138.64ZM52.1701 138.304L54.1161 138.36V141.986C54.0321 142.005 53.9108 142.028 53.7521 142.056C53.5934 142.084 53.4208 142.098 53.2341 142.098C52.8701 142.098 52.5994 142.033 52.4221 141.902C52.2541 141.771 52.1701 141.533 52.1701 141.188V138.304ZM54.1161 139.368L52.1701 139.312V132.886C52.2541 132.867 52.3754 132.844 52.5341 132.816C52.6928 132.788 52.8654 132.774 53.0521 132.774C53.4254 132.774 53.6961 132.839 53.8641 132.97C54.0321 133.101 54.1161 133.339 54.1161 133.684V139.368ZM55.9845 138.304L57.9305 138.36V141.986C57.8465 142.005 57.7252 142.028 57.5665 142.056C57.4079 142.084 57.2352 142.098 57.0485 142.098C56.6845 142.098 56.4139 142.033 56.2365 141.902C56.0685 141.771 55.9845 141.533 55.9845 141.188V138.304ZM57.9305 139.368L55.9845 139.312V132.886C56.0685 132.867 56.1899 132.844 56.3485 132.816C56.5072 132.788 56.6799 132.774 56.8665 132.774C57.2399 132.774 57.5105 132.839 57.6785 132.97C57.8465 133.101 57.9305 133.339 57.9305 133.684V139.368ZM59.7013 139.41V138.374H61.6473V139.396C61.6473 139.844 61.764 140.171 61.9973 140.376C62.2307 140.572 62.5573 140.67 62.9773 140.67C63.248 140.67 63.472 140.647 63.6493 140.6C63.836 140.544 63.976 140.488 64.0693 140.432V138.374H66.0153V140.642C66.0153 140.866 65.9733 141.057 65.8893 141.216C65.8147 141.365 65.6793 141.501 65.4833 141.622C65.194 141.799 64.8347 141.939 64.4053 142.042C63.976 142.154 63.4953 142.21 62.9633 142.21C62.31 142.21 61.736 142.112 61.2413 141.916C60.756 141.72 60.378 141.417 60.1073 141.006C59.8367 140.595 59.7013 140.063 59.7013 139.41ZM66.0153 139.018H64.0693V135.336C64.1533 135.317 64.2747 135.294 64.4333 135.266C64.592 135.238 64.7647 135.224 64.9513 135.224C65.3247 135.224 65.5953 135.289 65.7633 135.42C65.9313 135.541 66.0153 135.779 66.0153 136.134V139.018ZM61.6473 139.018H59.7013V135.336C59.7853 135.317 59.9067 135.294 60.0653 135.266C60.224 135.238 60.3967 135.224 60.5833 135.224C60.9567 135.224 61.2273 135.289 61.3953 135.42C61.5633 135.541 61.6473 135.779 61.6473 136.134V139.018ZM73.0334 140.068C73.0334 140.74 72.7814 141.267 72.2774 141.65C71.7734 142.033 71.0454 142.224 70.0934 142.224C69.328 142.224 68.698 142.112 68.2034 141.888C67.718 141.655 67.4754 141.333 67.4754 140.922C67.4754 140.745 67.5174 140.586 67.6014 140.446C67.6854 140.297 67.788 140.18 67.9094 140.096C68.18 140.255 68.488 140.399 68.8334 140.53C69.1787 140.661 69.5754 140.726 70.0234 140.726C70.742 140.726 71.1014 140.511 71.1014 140.082C71.1014 139.905 71.036 139.765 70.9054 139.662C70.7747 139.55 70.5694 139.466 70.2894 139.41L69.6174 139.242C68.8987 139.093 68.362 138.855 68.0074 138.528C67.6527 138.201 67.4754 137.758 67.4754 137.198C67.4754 136.563 67.732 136.055 68.2454 135.672C68.7587 135.289 69.454 135.098 70.3314 135.098C70.7887 135.098 71.1947 135.145 71.5494 135.238C71.9134 135.322 72.198 135.453 72.4034 135.63C72.618 135.807 72.7254 136.022 72.7254 136.274C72.7254 136.451 72.688 136.61 72.6134 136.75C72.5387 136.881 72.4454 136.988 72.3334 137.072C72.2307 137.007 72.0767 136.937 71.8714 136.862C71.666 136.787 71.4374 136.727 71.1854 136.68C70.9427 136.624 70.7094 136.596 70.4854 136.596C70.1494 136.596 69.8787 136.647 69.6734 136.75C69.4774 136.853 69.3794 137.002 69.3794 137.198C69.3794 137.329 69.4354 137.445 69.5474 137.548C69.6594 137.641 69.8554 137.721 70.1354 137.786L70.7514 137.926C71.5634 138.113 72.1467 138.379 72.5014 138.724C72.856 139.069 73.0334 139.517 73.0334 140.068ZM74.3853 138.304H76.3313V139.858C76.3313 140.138 76.4153 140.339 76.5833 140.46C76.7606 140.581 77.0033 140.642 77.3113 140.642C77.4606 140.642 77.6146 140.628 77.7733 140.6C77.9413 140.563 78.0859 140.521 78.2073 140.474C78.2819 140.549 78.3473 140.647 78.4033 140.768C78.4593 140.88 78.4873 141.015 78.4873 141.174C78.4873 141.463 78.3566 141.706 78.0953 141.902C77.8433 142.098 77.4233 142.196 76.8353 142.196C76.0699 142.196 75.4679 142.023 75.0293 141.678C74.5999 141.333 74.3853 140.773 74.3853 139.998V138.304ZM75.6033 136.974V135.462H78.3193C78.3659 135.537 78.4079 135.639 78.4453 135.77C78.4919 135.901 78.5153 136.045 78.5153 136.204C78.5153 136.465 78.4546 136.661 78.3333 136.792C78.2119 136.913 78.0486 136.974 77.8433 136.974H75.6033ZM76.3313 138.668H74.3853V133.628C74.4693 133.6 74.5906 133.572 74.7493 133.544C74.9173 133.516 75.0899 133.502 75.2673 133.502C75.6313 133.502 75.8973 133.567 76.0653 133.698C76.2426 133.829 76.3313 134.067 76.3313 134.412V138.668ZM81.745 137.044V138.85H79.799V136.834C79.799 136.582 79.8597 136.367 79.981 136.19C80.1023 136.013 80.2703 135.854 80.485 135.714C80.7837 135.537 81.1477 135.397 81.577 135.294C82.0157 135.182 82.4777 135.126 82.963 135.126C83.887 135.126 84.349 135.425 84.349 136.022C84.349 136.162 84.3257 136.293 84.279 136.414C84.2417 136.535 84.195 136.643 84.139 136.736C84.0457 136.717 83.929 136.703 83.789 136.694C83.649 136.675 83.5043 136.666 83.355 136.666C83.0563 136.666 82.7623 136.699 82.473 136.764C82.193 136.829 81.9503 136.923 81.745 137.044ZM79.799 138.304L81.745 138.36V141.986C81.661 142.005 81.5397 142.028 81.381 142.056C81.2223 142.084 81.0497 142.098 80.863 142.098C80.499 142.098 80.2283 142.033 80.051 141.902C79.883 141.771 79.799 141.533 79.799 141.188V138.304ZM87.9561 140.754C88.1987 140.754 88.4227 140.731 88.6281 140.684C88.8427 140.637 89.0014 140.581 89.1041 140.516V139.088L87.8441 139.2C87.5081 139.228 87.2467 139.303 87.0601 139.424C86.8734 139.545 86.7801 139.723 86.7801 139.956C86.7801 140.199 86.8734 140.395 87.0601 140.544C87.2467 140.684 87.5454 140.754 87.9561 140.754ZM87.8861 135.112C88.8287 135.112 89.5801 135.313 90.1401 135.714C90.7094 136.106 90.9941 136.727 90.9941 137.576V140.768C90.9941 141.001 90.9334 141.188 90.8121 141.328C90.7001 141.459 90.5554 141.58 90.3781 141.692C90.1074 141.851 89.7667 141.977 89.3561 142.07C88.9454 142.163 88.4787 142.21 87.9561 142.21C87.0134 142.21 86.2621 142.028 85.7021 141.664C85.1514 141.3 84.8761 140.754 84.8761 140.026C84.8761 139.391 85.0721 138.906 85.4641 138.57C85.8561 138.234 86.4394 138.029 87.2141 137.954L89.0901 137.758V137.548C89.0901 137.212 88.9641 136.969 88.7121 136.82C88.4601 136.671 88.1054 136.596 87.6481 136.596C87.2934 136.596 86.9434 136.643 86.5981 136.736C86.2527 136.82 85.9447 136.923 85.6741 137.044C85.5714 136.969 85.4827 136.862 85.4081 136.722C85.3334 136.573 85.2961 136.419 85.2961 136.26C85.2961 135.887 85.4967 135.616 85.8981 135.448C86.1687 135.336 86.4814 135.252 86.8361 135.196C87.1907 135.14 87.5407 135.112 87.8861 135.112ZM92.6782 138.304H94.6242V139.858C94.6242 140.138 94.7082 140.339 94.8762 140.46C95.0536 140.581 95.2962 140.642 95.6042 140.642C95.7536 140.642 95.9076 140.628 96.0662 140.6C96.2342 140.563 96.3789 140.521 96.5002 140.474C96.5749 140.549 96.6402 140.647 96.6962 140.768C96.7522 140.88 96.7802 141.015 96.7802 141.174C96.7802 141.463 96.6496 141.706 96.3882 141.902C96.1362 142.098 95.7162 142.196 95.1282 142.196C94.3629 142.196 93.7609 142.023 93.3222 141.678C92.8929 141.333 92.6782 140.773 92.6782 139.998V138.304ZM93.8962 136.974V135.462H96.6122C96.6589 135.537 96.7009 135.639 96.7382 135.77C96.7849 135.901 96.8082 136.045 96.8082 136.204C96.8082 136.465 96.7476 136.661 96.6262 136.792C96.5049 136.913 96.3416 136.974 96.1362 136.974H93.8962ZM94.6242 138.668H92.6782V133.628C92.7622 133.6 92.8836 133.572 93.0422 133.544C93.2102 133.516 93.3829 133.502 93.5602 133.502C93.9242 133.502 94.1902 133.567 94.3582 133.698C94.5356 133.829 94.6242 134.067 94.6242 134.412V138.668ZM104.675 138.654C104.675 139.382 104.53 140.012 104.241 140.544C103.951 141.076 103.545 141.487 103.023 141.776C102.5 142.065 101.884 142.21 101.175 142.21C100.465 142.21 99.8446 142.07 99.3126 141.79C98.7899 141.501 98.3839 141.09 98.0946 140.558C97.8052 140.026 97.6606 139.391 97.6606 138.654C97.6606 137.926 97.8052 137.301 98.0946 136.778C98.3932 136.246 98.8039 135.835 99.3266 135.546C99.8586 135.257 100.475 135.112 101.175 135.112C101.875 135.112 102.486 135.257 103.009 135.546C103.531 135.835 103.937 136.246 104.227 136.778C104.525 137.31 104.675 137.935 104.675 138.654ZM101.161 136.652C100.703 136.652 100.339 136.829 100.069 137.184C99.7979 137.529 99.6626 138.019 99.6626 138.654C99.6626 139.307 99.7932 139.807 100.055 140.152C100.325 140.497 100.699 140.67 101.175 140.67C101.641 140.67 102.005 140.497 102.267 140.152C102.537 139.797 102.673 139.298 102.673 138.654C102.673 138.029 102.537 137.539 102.267 137.184C102.005 136.829 101.637 136.652 101.161 136.652ZM107.981 137.044V138.85H106.035V136.834C106.035 136.582 106.096 136.367 106.217 136.19C106.339 136.013 106.507 135.854 106.721 135.714C107.02 135.537 107.384 135.397 107.813 135.294C108.252 135.182 108.714 135.126 109.199 135.126C110.123 135.126 110.585 135.425 110.585 136.022C110.585 136.162 110.562 136.293 110.515 136.414C110.478 136.535 110.431 136.643 110.375 136.736C110.282 136.717 110.165 136.703 110.025 136.694C109.885 136.675 109.741 136.666 109.591 136.666C109.293 136.666 108.999 136.699 108.709 136.764C108.429 136.829 108.187 136.923 107.981 137.044ZM106.035 138.304L107.981 138.36V141.986C107.897 142.005 107.776 142.028 107.617 142.056C107.459 142.084 107.286 142.098 107.099 142.098C106.735 142.098 106.465 142.033 106.287 141.902C106.119 141.771 106.035 141.533 106.035 141.188V138.304Z" fill="#828282"/>
<path d="M43.0704 4.45367H124.831V85.4586H43.0704V4.45367Z" fill="url(#paint0_radial_2_197)"/>
<path d="M39.3607 4.11383H121.121V85.1187H39.3607V4.11383Z" fill="url(#paint1_radial_2_197)"/>
<path d="M39.3607 4.11382H121.121V85.1187H39.3607V4.11382ZM35.6451 88.9025H124.855V0.330078H35.6451V88.9025ZM94.0761 31.9098C94.0761 31.6006 94.1833 31.455 94.5227 31.455H100.364C100.668 31.455 100.811 31.5642 100.811 31.9098V61.7796C100.811 62.0888 100.739 62.2343 100.364 62.2343H94.5941C94.219 62.2343 94.1118 62.0524 94.1118 61.7432V31.9098H94.0761ZM93.6652 23.3054C93.6652 20.886 95.3444 19.4489 97.4523 19.4489C99.7209 19.4489 101.239 20.9951 101.239 23.3054C101.239 25.7976 99.6495 27.1619 97.3808 27.1619C95.2372 27.1801 93.6652 25.8158 93.6652 23.3054ZM76.9452 44.3525C75.9091 40.1504 73.4439 31.0002 72.5151 26.5616H72.4436C71.6576 30.9821 69.6926 38.4768 68.1385 44.3525H76.9452ZM66.6202 50.4829L63.6906 61.8341C63.6191 62.1434 63.5119 62.2161 63.1368 62.2161H57.6706C57.2955 62.2161 57.224 62.107 57.2955 61.6522L67.8527 24.0331C68.0314 23.36 68.1564 22.7415 68.2279 20.886C68.2279 20.6131 68.335 20.504 68.5315 20.504H76.3378C76.6058 20.504 76.7129 20.5768 76.7844 20.886L88.6099 61.725C88.6814 62.0342 88.6099 62.2161 88.3062 62.2161H82.1434C81.8397 62.2161 81.6611 62.1434 81.5896 61.8705L78.535 50.4829H66.6202Z" fill="#FF7F18"/>
<path d="M12.2142 183.86C12.514 182.94 13.816 182.94 14.1158 183.86L15.8669 189.234C16.001 189.646 16.3848 189.924 16.8177 189.924H22.4785C23.4478 189.924 23.8502 191.165 23.0652 191.734L18.4903 195.049C18.1388 195.304 17.9918 195.756 18.1262 196.168L19.8748 201.535C20.1748 202.456 19.1215 203.223 18.3373 202.655L13.7517 199.332C13.4017 199.079 12.9283 199.079 12.5783 199.332L7.99273 202.655C7.20847 203.223 6.15518 202.456 6.4552 201.535L8.20377 196.168C8.33823 195.756 8.19115 195.304 7.83969 195.049L3.26482 191.734C2.47981 191.165 2.88214 189.924 3.85153 189.924H9.51229C9.94522 189.924 10.329 189.646 10.4631 189.234L12.2142 183.86Z" fill="#070707"/>
<path d="M47.3115 183.86C47.6113 182.939 48.9132 182.939 49.2131 183.86L50.9642 189.234C51.0983 189.646 51.4821 189.924 51.915 189.924H57.5757C58.5451 189.924 58.9475 191.165 58.1625 191.734L53.5876 195.049C53.2361 195.303 53.089 195.756 53.2235 196.168L54.9721 201.535C55.2721 202.456 54.2188 203.223 53.4345 202.654L48.849 199.332C48.499 199.078 48.0256 199.078 47.6756 199.332L43.09 202.654C42.3058 203.223 41.2525 202.456 41.5525 201.535L43.3011 196.168C43.4355 195.756 43.2884 195.303 42.937 195.049L38.3621 191.734C37.5771 191.165 37.9794 189.924 38.9488 189.924H44.6096C45.0425 189.924 45.4263 189.646 45.5604 189.234L47.3115 183.86Z" fill="#070707"/>
<path d="M82.4086 183.86C82.7085 182.939 84.0104 182.939 84.3103 183.86L86.0613 189.234C86.1955 189.646 86.5792 189.924 87.0122 189.924H92.6729C93.6423 189.924 94.0446 191.165 93.2596 191.734L88.6848 195.049C88.3333 195.303 88.1862 195.756 88.3207 196.168L90.0692 201.535C90.3693 202.456 89.316 203.223 88.5317 202.654L83.9462 199.332C83.5961 199.078 83.1228 199.078 82.7727 199.332L78.1872 202.654C77.4029 203.223 76.3496 202.456 76.6497 201.535L78.3982 196.168C78.5327 195.756 78.3856 195.303 78.0341 195.049L73.4593 191.734C72.6743 191.165 73.0766 189.924 74.046 189.924H79.7067C80.1397 189.924 80.5234 189.646 80.6576 189.234L82.4086 183.86Z" fill="#070707"/>
<path d="M117.506 183.86C117.806 182.939 119.108 182.939 119.407 183.86L121.159 189.234C121.293 189.646 121.676 189.924 122.109 189.924H127.77C128.739 189.924 129.142 191.165 128.357 191.734L123.782 195.049C123.43 195.303 123.283 195.756 123.418 196.168L125.166 201.535C125.466 202.456 124.413 203.223 123.629 202.654L119.043 199.332C118.693 199.078 118.22 199.078 117.87 199.332L113.284 202.654C112.5 203.223 111.447 202.456 111.747 201.535L113.495 196.168C113.63 195.756 113.483 195.303 113.131 195.049L108.556 191.734C107.771 191.165 108.174 189.924 109.143 189.924H114.804C115.237 189.924 115.621 189.646 115.755 189.234L117.506 183.86Z" fill="#070707"/>
<path d="M152.603 183.86C152.903 182.939 154.205 182.939 154.505 183.86L156.256 189.234C156.39 189.646 156.774 189.924 157.206 189.924H162.867C163.837 189.924 164.239 191.165 163.454 191.734L158.879 195.049C158.528 195.303 158.381 195.756 158.515 196.168L160.264 201.535C160.564 202.456 159.51 203.223 158.726 202.654L154.141 199.332C153.79 199.078 153.317 199.078 152.967 199.332L148.382 202.654C147.597 203.223 146.544 202.456 146.844 201.535L148.593 196.168C148.727 195.756 148.58 195.303 148.228 195.049L143.654 191.734C142.869 191.165 143.271 189.924 144.24 189.924H149.901C150.334 189.924 150.718 189.646 150.852 189.234L152.603 183.86Z" fill="#E5E5E5"/>
<defs>
<radialGradient id="paint0_radial_2_197" cx="0" cy="0" r="1" gradientUnits="userSpaceOnUse" gradientTransform="translate(70.0229 22.6149) scale(62.1407 61.2673)">
<stop stop-color="#442F55" stop-opacity="0.98"/>
<stop offset="1" stop-color="#12002C"/>
</radialGradient>
<radialGradient id="paint1_radial_2_197" cx="0" cy="0" r="1" gradientUnits="userSpaceOnUse" gradientTransform="translate(66.3153 22.2911) scale(62.1406 61.2673)">
<stop stop-color="#423325" stop-opacity="0.98"/>
<stop offset="1" stop-color="#1C0A00"/>
</radialGradient>
</defs>
</svg>
