<svg width="39" height="40" viewBox="0 0 39 40" fill="none" xmlns="http://www.w3.org/2000/svg">
<path d="M19.5 14.9994C18.5817 14.9998 17.6841 15.275 16.9207 15.7904C16.1573 16.3057 15.5624 17.038 15.2113 17.8947C14.8601 18.7513 14.7684 19.6939 14.9477 20.6032C15.1271 21.5125 15.5695 22.3476 16.219 23.0031C16.8684 23.6586 17.6958 24.1049 18.5965 24.2856C19.4972 24.4664 20.4307 24.3734 21.2791 24.0186C22.1275 23.6637 22.8526 23.0628 23.3627 22.2919C23.8729 21.521 24.1452 20.6146 24.1452 19.6875C24.1443 18.4441 23.6545 17.252 22.7835 16.3729C21.9125 15.4939 20.7315 14.9999 19.5 14.9994ZM30.3565 11.3959C30.1201 10.7911 29.7631 10.2417 29.3077 9.78197C28.8523 9.3222 28.3082 8.96181 27.7092 8.72314C25.881 7.99453 21.5283 8.15801 19.5 8.15801C17.4717 8.15801 13.1233 7.98838 11.29 8.72314C10.6909 8.96181 10.1468 9.3222 9.69142 9.78197C9.23603 10.2417 8.87907 10.7911 8.64268 11.3959C7.92188 13.2416 8.08292 17.6405 8.08292 19.6866C8.08292 21.7327 7.92188 26.1264 8.64616 27.9782C8.88255 28.583 9.23951 29.1324 9.6949 29.5922C10.1503 30.0519 10.6944 30.4123 11.2935 30.651C13.1216 31.3796 17.4743 31.2161 19.5035 31.2161C21.5327 31.2161 25.8793 31.3857 27.7126 30.651C28.3117 30.4123 28.8558 30.0519 29.3112 29.5922C29.7666 29.1324 30.1235 28.583 30.3599 27.9782C31.0868 26.1325 30.9197 21.7336 30.9197 19.6875C30.9197 17.6414 31.0868 13.2486 30.3599 11.3968L30.3565 11.3959ZM19.5 26.8945C18.0882 26.8945 16.708 26.4718 15.5341 25.6799C14.3602 24.888 13.4453 23.7624 12.905 22.4455C12.3647 21.1286 12.2233 19.6795 12.4988 18.2815C12.7742 16.8835 13.4541 15.5993 14.4524 14.5914C15.4507 13.5834 16.7227 12.897 18.1074 12.6189C19.4921 12.3409 20.9274 12.4836 22.2317 13.0291C23.5361 13.5746 24.651 14.4983 25.4354 15.6835C26.2197 16.8687 26.6384 18.2621 26.6384 19.6875C26.6395 20.6343 26.4557 21.572 26.0973 22.4469C25.739 23.3218 25.2133 24.1168 24.5502 24.7862C23.8871 25.4557 23.0997 25.9865 22.2331 26.3483C21.3665 26.7101 20.4377 26.8957 19.5 26.8945ZM26.9326 13.8604C26.6031 13.8605 26.2808 13.762 26.0067 13.5773C25.7326 13.3925 25.5189 13.1299 25.3926 12.8225C25.2664 12.5151 25.2333 12.1769 25.2975 11.8505C25.3617 11.5241 25.5203 11.2243 25.7533 10.9889C25.9863 10.7536 26.2831 10.5933 26.6064 10.5283C26.9296 10.4633 27.2647 10.4966 27.5692 10.6239C27.8737 10.7512 28.134 10.9668 28.3171 11.2434C28.5002 11.5201 28.598 11.8454 28.598 12.1781C28.5989 12.3991 28.5566 12.6181 28.4735 12.8225C28.3904 13.0269 28.2681 13.2128 28.1137 13.3694C27.9593 13.526 27.7758 13.6503 27.5738 13.7352C27.3717 13.82 27.155 13.8638 26.9361 13.8639L26.9326 13.8604ZM34.8214 0H4.17857C3.07035 0 2.00751 0.444474 1.22388 1.23564C0.440241 2.02681 0 3.09987 0 4.21875L0 35.1562C0 36.2751 0.440241 37.3482 1.22388 38.1394C2.00751 38.9305 3.07035 39.375 4.17857 39.375H34.8214C35.9297 39.375 36.9925 38.9305 37.7761 38.1394C38.5598 37.3482 39 36.2751 39 35.1562V4.21875C39 3.09987 38.5598 2.02681 37.7761 1.23564C36.9925 0.444474 35.9297 0 34.8214 0ZM33.3311 25.4883C33.2188 27.7409 32.7095 29.7369 31.0807 31.377C29.452 33.017 27.4767 33.5417 25.2481 33.6489C22.9491 33.7799 16.0562 33.7799 13.7571 33.6489C11.5259 33.5355 9.55587 33.0205 7.92449 31.377C6.2931 29.7334 5.78036 27.7365 5.67415 25.4883C5.54444 23.1662 5.54444 16.2062 5.67415 13.8867C5.78645 11.6341 6.28962 9.63809 7.92449 7.99805C9.55935 6.35801 11.5346 5.83945 13.7571 5.73223C16.0562 5.60127 22.9491 5.60127 25.2481 5.73223C27.4793 5.84561 29.4554 6.36064 31.0807 8.0042C32.706 9.64775 33.2249 11.6446 33.3311 13.8973C33.4608 16.2105 33.4608 23.1645 33.3311 25.4883Z" fill="black"/>
</svg>
