<svg width="37" height="39" viewBox="0 0 37 39" fill="none" xmlns="http://www.w3.org/2000/svg">
<path d="M34.3571 0.6875H2.6346C1.18103 0.6875 0 1.90527 0 3.4002V35.5998C0 37.0947 1.18103 38.3125 2.6346 38.3125H34.3571C35.8107 38.3125 37 37.0947 37 35.5998V3.4002C37 1.90527 35.8107 0.6875 34.3571 0.6875ZM11.1826 32.9375H5.69866V14.9816H11.1908V32.9375H11.1826ZM8.44062 12.5293C6.68147 12.5293 5.26094 11.0764 5.26094 9.2959C5.26094 7.51543 6.68147 6.0625 8.44062 6.0625C10.1915 6.0625 11.6203 7.51543 11.6203 9.2959C11.6203 11.0848 10.1998 12.5293 8.44062 12.5293ZM31.7391 32.9375H26.2551V24.2031C26.2551 22.1203 26.2138 19.4412 23.4058 19.4412C20.5482 19.4412 20.1105 21.7088 20.1105 24.052V32.9375H14.6266V14.9816H19.8875V17.434H19.9618C20.6969 16.023 22.4891 14.5365 25.1567 14.5365C30.7067 14.5365 31.7391 18.257 31.7391 23.0945V32.9375Z" fill="black"/>
</svg>
