<svg width="168" height="207" viewBox="0 0 168 207" fill="none" xmlns="http://www.w3.org/2000/svg">
<path d="M42.9341 4.42578H124.599V85.2804H42.9341V4.42578Z" fill="url(#paint0_radial_2_170)"/>
<path d="M42.9341 4.42575H124.599V85.2803H42.9341V4.42575ZM39.2212 89.0596H128.294V0.646484H39.2212V89.0596ZM99.2876 36.9311C96.3602 36.9311 95.3605 38.4392 95.3605 39.6929C95.3605 41.0556 96.021 42.0004 99.9659 44.0717C105.785 46.9425 107.606 49.7043 107.606 53.7379C107.606 59.7884 103.072 63.0408 96.9492 63.0408C93.7183 63.0408 90.9337 62.3685 89.345 61.4237C89.0772 61.3146 89.0415 61.1148 89.0415 60.8241V55.246C89.0415 54.8645 89.22 54.7554 89.4878 54.9371C91.8262 56.4815 94.5037 57.172 96.9492 57.172C99.8767 57.172 101.108 55.9183 101.108 54.2285C101.108 52.8658 100.252 51.6666 96.503 49.6861C91.2371 47.1242 89.0415 44.526 89.0415 40.1653C89.0415 35.2958 92.7901 31.244 99.2876 31.244C102.483 31.244 104.714 31.7346 105.928 32.2979C106.231 32.4796 106.303 32.7884 106.303 33.061V38.2393C106.303 38.5482 106.124 38.7299 105.749 38.6209C104.107 37.567 101.697 36.9311 99.2876 36.9311ZM67.3712 41.419C68.228 41.4917 68.8885 41.4917 70.3701 41.4917C74.7077 41.4917 78.7954 39.9472 78.7954 33.9331C78.7954 29.1364 75.868 26.7198 70.9234 26.7198C69.4418 26.7198 68.0317 26.7925 67.3533 26.8288L67.3712 41.419ZM60.7487 21.3598C60.7487 21.0872 61.2664 20.9055 61.5698 20.9055C63.9439 20.7965 67.4783 20.7239 71.1376 20.7239C81.4194 20.7239 85.4358 26.4654 85.4358 33.7878C85.4358 43.3813 78.5991 47.5058 70.2094 47.5058C68.7992 47.5058 68.3173 47.4331 67.3176 47.4331V61.9324C67.3176 62.2413 67.2105 62.3867 66.8714 62.3867H61.195C60.8915 62.3867 60.7487 62.2776 60.7487 61.9324V21.3598Z" fill="#31C5F0"/>
<path d="M63.1837 127.378C62.9597 127.378 62.7777 127.326 62.6377 127.224C62.507 127.121 62.4277 126.986 62.3997 126.818C62.3717 126.64 62.4044 126.444 62.4977 126.23L66.1937 118.04C66.315 117.769 66.4597 117.578 66.6277 117.466C66.805 117.344 67.0057 117.284 67.2297 117.284C67.4444 117.284 67.6357 117.344 67.8037 117.466C67.981 117.578 68.1304 117.769 68.2517 118.04L71.9617 126.23C72.0644 126.444 72.1017 126.64 72.0737 126.818C72.0457 126.995 71.9664 127.135 71.8357 127.238C71.705 127.331 71.5324 127.378 71.3177 127.378C71.0564 127.378 70.851 127.317 70.7017 127.196C70.5617 127.065 70.4357 126.869 70.3237 126.608L69.4137 124.494L70.1697 124.984H64.2617L65.0177 124.494L64.1217 126.608C64.0004 126.878 63.8744 127.074 63.7437 127.196C63.613 127.317 63.4264 127.378 63.1837 127.378ZM67.2017 119.342L65.2417 124.004L64.8777 123.556H69.5537L69.2037 124.004L67.2297 119.342H67.2017ZM75.8993 127.406C75.302 127.406 74.7746 127.261 74.3173 126.972C73.8693 126.682 73.5193 126.272 73.2673 125.74C73.0153 125.198 72.8893 124.564 72.8893 123.836C72.8893 123.098 73.0153 122.468 73.2673 121.946C73.5193 121.414 73.8693 121.003 74.3173 120.714C74.7746 120.424 75.302 120.28 75.8993 120.28C76.4686 120.28 76.9633 120.42 77.3833 120.7C77.8126 120.98 78.102 121.348 78.2513 121.806H78.0973V118.166C78.0973 117.876 78.172 117.657 78.3213 117.508C78.4706 117.358 78.6853 117.284 78.9653 117.284C79.2453 117.284 79.46 117.358 79.6093 117.508C79.768 117.657 79.8473 117.876 79.8473 118.166V126.482C79.8473 126.771 79.7726 126.995 79.6233 127.154C79.474 127.303 79.2593 127.378 78.9793 127.378C78.6993 127.378 78.4846 127.303 78.3353 127.154C78.186 126.995 78.1113 126.771 78.1113 126.482V125.39L78.2653 125.81C78.1253 126.295 77.8406 126.682 77.4113 126.972C76.982 127.261 76.478 127.406 75.8993 127.406ZM76.3893 126.076C76.7346 126.076 77.038 125.992 77.2993 125.824C77.5606 125.656 77.7613 125.408 77.9013 125.082C78.0506 124.746 78.1253 124.33 78.1253 123.836C78.1253 123.089 77.9666 122.534 77.6493 122.17C77.332 121.796 76.912 121.61 76.3893 121.61C76.044 121.61 75.7406 121.694 75.4793 121.862C75.218 122.02 75.0126 122.268 74.8633 122.604C74.7233 122.93 74.6533 123.341 74.6533 123.836C74.6533 124.573 74.812 125.133 75.1293 125.516C75.4466 125.889 75.8666 126.076 76.3893 126.076ZM84.7838 127.406C84.0745 127.406 83.4585 127.261 82.9358 126.972C82.4132 126.682 82.0072 126.272 81.7178 125.74C81.4285 125.198 81.2838 124.564 81.2838 123.836C81.2838 123.285 81.3632 122.795 81.5218 122.366C81.6898 121.927 81.9278 121.554 82.2358 121.246C82.5438 120.928 82.9125 120.69 83.3418 120.532C83.7712 120.364 84.2518 120.28 84.7838 120.28C85.4932 120.28 86.1092 120.424 86.6318 120.714C87.1545 121.003 87.5605 121.414 87.8498 121.946C88.1392 122.478 88.2838 123.108 88.2838 123.836C88.2838 124.386 88.1998 124.881 88.0318 125.32C87.8732 125.758 87.6398 126.136 87.3318 126.454C87.0238 126.762 86.6552 127 86.2258 127.168C85.7965 127.326 85.3158 127.406 84.7838 127.406ZM84.7838 126.076C85.1292 126.076 85.4325 125.992 85.6938 125.824C85.9552 125.656 86.1558 125.408 86.2958 125.082C86.4452 124.746 86.5198 124.33 86.5198 123.836C86.5198 123.089 86.3612 122.534 86.0438 122.17C85.7265 121.796 85.3065 121.61 84.7838 121.61C84.4385 121.61 84.1352 121.694 83.8738 121.862C83.6125 122.02 83.4072 122.268 83.2578 122.604C83.1178 122.93 83.0478 123.341 83.0478 123.836C83.0478 124.573 83.2065 125.133 83.5238 125.516C83.8412 125.889 84.2612 126.076 84.7838 126.076ZM93.6762 127.406C93.0976 127.406 92.5889 127.261 92.1502 126.972C91.7209 126.682 91.4362 126.295 91.2962 125.81L91.4502 125.46V126.482C91.4502 126.771 91.3756 126.995 91.2262 127.154C91.0769 127.303 90.8669 127.378 90.5962 127.378C90.3162 127.378 90.1016 127.303 89.9522 127.154C89.8029 126.995 89.7282 126.771 89.7282 126.482V118.166C89.7282 117.876 89.8029 117.657 89.9522 117.508C90.1016 117.358 90.3162 117.284 90.5962 117.284C90.8762 117.284 91.0909 117.358 91.2402 117.508C91.3989 117.657 91.4782 117.876 91.4782 118.166V121.806H91.3102C91.4596 121.348 91.7489 120.98 92.1782 120.7C92.6076 120.42 93.1069 120.28 93.6762 120.28C94.2829 120.28 94.8102 120.424 95.2582 120.714C95.7062 121.003 96.0562 121.414 96.3082 121.946C96.5602 122.468 96.6862 123.098 96.6862 123.836C96.6862 124.564 96.5602 125.198 96.3082 125.74C96.0562 126.272 95.7016 126.682 95.2442 126.972C94.7962 127.261 94.2736 127.406 93.6762 127.406ZM93.1862 126.076C93.5316 126.076 93.8349 125.992 94.0962 125.824C94.3576 125.656 94.5582 125.408 94.6982 125.082C94.8476 124.746 94.9222 124.33 94.9222 123.836C94.9222 123.089 94.7636 122.534 94.4462 122.17C94.1289 121.796 93.7089 121.61 93.1862 121.61C92.8409 121.61 92.5376 121.694 92.2762 121.862C92.0149 122.02 91.8096 122.268 91.6602 122.604C91.5202 122.93 91.4502 123.341 91.4502 123.836C91.4502 124.573 91.6089 125.133 91.9262 125.516C92.2436 125.889 92.6636 126.076 93.1862 126.076ZM101.497 127.406C100.722 127.406 100.055 127.261 99.4948 126.972C98.9348 126.682 98.5008 126.272 98.1928 125.74C97.8941 125.208 97.7448 124.578 97.7448 123.85C97.7448 123.14 97.8894 122.52 98.1788 121.988C98.4774 121.456 98.8834 121.04 99.3968 120.742C99.9194 120.434 100.512 120.28 101.175 120.28C101.66 120.28 102.094 120.359 102.477 120.518C102.869 120.676 103.2 120.905 103.471 121.204C103.751 121.502 103.961 121.866 104.101 122.296C104.25 122.716 104.325 123.192 104.325 123.724C104.325 123.892 104.264 124.022 104.143 124.116C104.031 124.2 103.867 124.242 103.653 124.242H99.1588V123.234H103.093L102.869 123.444C102.869 123.014 102.803 122.655 102.673 122.366C102.551 122.076 102.369 121.857 102.127 121.708C101.893 121.549 101.599 121.47 101.245 121.47C100.853 121.47 100.517 121.563 100.237 121.75C99.9661 121.927 99.7561 122.184 99.6068 122.52C99.4668 122.846 99.3968 123.238 99.3968 123.696V123.794C99.3968 124.559 99.5741 125.133 99.9288 125.516C100.293 125.889 100.825 126.076 101.525 126.076C101.767 126.076 102.038 126.048 102.337 125.992C102.645 125.926 102.934 125.819 103.205 125.67C103.401 125.558 103.573 125.511 103.723 125.53C103.872 125.539 103.989 125.59 104.073 125.684C104.166 125.777 104.222 125.894 104.241 126.034C104.259 126.164 104.231 126.3 104.157 126.44C104.091 126.58 103.975 126.701 103.807 126.804C103.48 127.009 103.102 127.163 102.673 127.266C102.253 127.359 101.861 127.406 101.497 127.406ZM50.2893 142.378C50 142.378 49.776 142.298 49.6173 142.14C49.468 141.972 49.3933 141.743 49.3933 141.454V133.306C49.3933 133.007 49.4726 132.783 49.6313 132.634C49.79 132.475 50.014 132.396 50.3033 132.396H53.6773C54.76 132.396 55.5953 132.666 56.1833 133.208C56.7713 133.749 57.0653 134.505 57.0653 135.476C57.0653 136.446 56.7713 137.207 56.1833 137.758C55.5953 138.299 54.76 138.57 53.6773 138.57H51.1853V141.454C51.1853 141.743 51.1106 141.972 50.9613 142.14C50.812 142.298 50.588 142.378 50.2893 142.378ZM51.1853 137.156H53.3973C54.032 137.156 54.5126 137.016 54.8393 136.736C55.166 136.446 55.3293 136.026 55.3293 135.476C55.3293 134.925 55.166 134.51 54.8393 134.23C54.5126 133.95 54.032 133.81 53.3973 133.81H51.1853V137.156ZM59.2261 142.378C58.9461 142.378 58.7315 142.303 58.5821 142.154C58.4328 141.995 58.3581 141.771 58.3581 141.482V133.166C58.3581 132.876 58.4328 132.657 58.5821 132.508C58.7315 132.358 58.9461 132.284 59.2261 132.284C59.5061 132.284 59.7208 132.358 59.8701 132.508C60.0288 132.657 60.1081 132.876 60.1081 133.166V136.792H59.9121C60.1175 136.297 60.4348 135.924 60.8641 135.672C61.3028 135.41 61.7975 135.28 62.3481 135.28C62.8988 135.28 63.3515 135.382 63.7061 135.588C64.0608 135.793 64.3268 136.106 64.5041 136.526C64.6815 136.936 64.7701 137.459 64.7701 138.094V141.482C64.7701 141.771 64.6955 141.995 64.5461 142.154C64.3968 142.303 64.1821 142.378 63.9021 142.378C63.6221 142.378 63.4028 142.303 63.2441 142.154C63.0948 141.995 63.0201 141.771 63.0201 141.482V138.178C63.0201 137.646 62.9175 137.258 62.7121 137.016C62.5161 136.773 62.2081 136.652 61.7881 136.652C61.2748 136.652 60.8641 136.815 60.5561 137.142C60.2575 137.459 60.1081 137.884 60.1081 138.416V141.482C60.1081 142.079 59.8141 142.378 59.2261 142.378ZM69.6696 142.406C68.9602 142.406 68.3442 142.261 67.8216 141.972C67.2989 141.682 66.8929 141.272 66.6036 140.74C66.3142 140.198 66.1696 139.564 66.1696 138.836C66.1696 138.285 66.2489 137.795 66.4076 137.366C66.5756 136.927 66.8136 136.554 67.1216 136.246C67.4296 135.928 67.7982 135.69 68.2276 135.532C68.6569 135.364 69.1376 135.28 69.6696 135.28C70.3789 135.28 70.9949 135.424 71.5176 135.714C72.0402 136.003 72.4462 136.414 72.7356 136.946C73.0249 137.478 73.1696 138.108 73.1696 138.836C73.1696 139.386 73.0856 139.881 72.9176 140.32C72.7589 140.758 72.5256 141.136 72.2176 141.454C71.9096 141.762 71.5409 142 71.1116 142.168C70.6822 142.326 70.2016 142.406 69.6696 142.406ZM69.6696 141.076C70.0149 141.076 70.3182 140.992 70.5796 140.824C70.8409 140.656 71.0416 140.408 71.1816 140.082C71.3309 139.746 71.4056 139.33 71.4056 138.836C71.4056 138.089 71.2469 137.534 70.9296 137.17C70.6122 136.796 70.1922 136.61 69.6696 136.61C69.3242 136.61 69.0209 136.694 68.7596 136.862C68.4982 137.02 68.2929 137.268 68.1436 137.604C68.0036 137.93 67.9336 138.341 67.9336 138.836C67.9336 139.573 68.0922 140.133 68.4096 140.516C68.7269 140.889 69.1469 141.076 69.6696 141.076ZM77.6816 142.406C77.075 142.406 76.5663 142.303 76.1556 142.098C75.7543 141.892 75.4556 141.594 75.2596 141.202C75.0636 140.8 74.9656 140.306 74.9656 139.718V136.736H74.2376C74.0136 136.736 73.841 136.68 73.7196 136.568C73.5983 136.446 73.5376 136.283 73.5376 136.078C73.5376 135.863 73.5983 135.7 73.7196 135.588C73.841 135.476 74.0136 135.42 74.2376 135.42H74.9656V134.146C74.9656 133.856 75.0403 133.637 75.1896 133.488C75.3483 133.338 75.5676 133.264 75.8476 133.264C76.1276 133.264 76.3423 133.338 76.4916 133.488C76.641 133.637 76.7156 133.856 76.7156 134.146V135.42H78.1996C78.4236 135.42 78.5963 135.476 78.7176 135.588C78.839 135.7 78.8996 135.863 78.8996 136.078C78.8996 136.283 78.839 136.446 78.7176 136.568C78.5963 136.68 78.4236 136.736 78.1996 136.736H76.7156V139.62C76.7156 140.068 76.8136 140.404 77.0096 140.628C77.2056 140.852 77.523 140.964 77.9616 140.964C78.1203 140.964 78.2603 140.95 78.3816 140.922C78.503 140.894 78.6103 140.875 78.7036 140.866C78.8156 140.856 78.909 140.894 78.9836 140.978C79.0583 141.052 79.0956 141.211 79.0956 141.454C79.0956 141.64 79.063 141.808 78.9976 141.958C78.9416 142.098 78.8343 142.196 78.6756 142.252C78.5543 142.289 78.3956 142.322 78.1996 142.35C78.0036 142.387 77.831 142.406 77.6816 142.406ZM82.9723 142.406C82.263 142.406 81.647 142.261 81.1243 141.972C80.6016 141.682 80.1956 141.272 79.9063 140.74C79.617 140.198 79.4723 139.564 79.4723 138.836C79.4723 138.285 79.5516 137.795 79.7103 137.366C79.8783 136.927 80.1163 136.554 80.4243 136.246C80.7323 135.928 81.101 135.69 81.5303 135.532C81.9596 135.364 82.4403 135.28 82.9723 135.28C83.6816 135.28 84.2976 135.424 84.8203 135.714C85.343 136.003 85.749 136.414 86.0383 136.946C86.3276 137.478 86.4723 138.108 86.4723 138.836C86.4723 139.386 86.3883 139.881 86.2203 140.32C86.0616 140.758 85.8283 141.136 85.5203 141.454C85.2123 141.762 84.8436 142 84.4143 142.168C83.985 142.326 83.5043 142.406 82.9723 142.406ZM82.9723 141.076C83.3176 141.076 83.621 140.992 83.8823 140.824C84.1436 140.656 84.3443 140.408 84.4843 140.082C84.6336 139.746 84.7083 139.33 84.7083 138.836C84.7083 138.089 84.5496 137.534 84.2323 137.17C83.915 136.796 83.495 136.61 82.9723 136.61C82.627 136.61 82.3236 136.694 82.0623 136.862C81.801 137.02 81.5956 137.268 81.4463 137.604C81.3063 137.93 81.2363 138.341 81.2363 138.836C81.2363 139.573 81.395 140.133 81.7123 140.516C82.0296 140.889 82.4496 141.076 82.9723 141.076ZM90.4227 142.406C90.0214 142.406 89.5967 142.364 89.1487 142.28C88.7007 142.196 88.2994 142.051 87.9447 141.846C87.7954 141.752 87.688 141.645 87.6227 141.524C87.5667 141.393 87.5434 141.267 87.5527 141.146C87.5714 141.015 87.618 140.903 87.6927 140.81C87.7767 140.716 87.8794 140.656 88.0007 140.628C88.1314 140.6 88.2714 140.623 88.4207 140.698C88.794 140.875 89.144 141.001 89.4707 141.076C89.7974 141.141 90.1194 141.174 90.4367 141.174C90.8847 141.174 91.216 141.099 91.4307 140.95C91.6547 140.791 91.7667 140.586 91.7667 140.334C91.7667 140.119 91.692 139.956 91.5427 139.844C91.4027 139.722 91.188 139.634 90.8987 139.578L89.4987 139.312C88.92 139.2 88.4767 138.99 88.1687 138.682C87.87 138.364 87.7207 137.958 87.7207 137.464C87.7207 137.016 87.842 136.628 88.0847 136.302C88.3367 135.975 88.682 135.723 89.1207 135.546C89.5594 135.368 90.0634 135.28 90.6327 135.28C91.0434 135.28 91.426 135.326 91.7807 135.42C92.1447 135.504 92.4947 135.639 92.8307 135.826C92.9707 135.9 93.064 135.998 93.1107 136.12C93.1667 136.241 93.1807 136.367 93.1527 136.498C93.1247 136.619 93.0687 136.731 92.9847 136.834C92.9007 136.927 92.7934 136.988 92.6627 137.016C92.5414 137.034 92.4014 137.006 92.2427 136.932C91.9534 136.782 91.6734 136.675 91.4027 136.61C91.1414 136.544 90.8894 136.512 90.6467 136.512C90.1894 136.512 89.8487 136.591 89.6247 136.75C89.41 136.908 89.3027 137.118 89.3027 137.38C89.3027 137.576 89.368 137.739 89.4987 137.87C89.6294 138 89.83 138.089 90.1007 138.136L91.5007 138.402C92.1074 138.514 92.5647 138.719 92.8727 139.018C93.19 139.316 93.3487 139.718 93.3487 140.222C93.3487 140.903 93.0827 141.44 92.5507 141.832C92.0187 142.214 91.3094 142.406 90.4227 142.406ZM95.6207 142.378C95.3407 142.378 95.126 142.303 94.9767 142.154C94.8273 141.995 94.7527 141.771 94.7527 141.482V133.166C94.7527 132.876 94.8273 132.657 94.9767 132.508C95.126 132.358 95.3407 132.284 95.6207 132.284C95.9007 132.284 96.1153 132.358 96.2647 132.508C96.4233 132.657 96.5027 132.876 96.5027 133.166V136.792H96.3067C96.512 136.297 96.8293 135.924 97.2587 135.672C97.6973 135.41 98.192 135.28 98.7427 135.28C99.2933 135.28 99.746 135.382 100.101 135.588C100.455 135.793 100.721 136.106 100.899 136.526C101.076 136.936 101.165 137.459 101.165 138.094V141.482C101.165 141.771 101.09 141.995 100.941 142.154C100.791 142.303 100.577 142.378 100.297 142.378C100.017 142.378 99.7973 142.303 99.6387 142.154C99.4893 141.995 99.4147 141.771 99.4147 141.482V138.178C99.4147 137.646 99.312 137.258 99.1067 137.016C98.9107 136.773 98.6027 136.652 98.1827 136.652C97.6693 136.652 97.2587 136.815 96.9507 137.142C96.652 137.459 96.5027 137.884 96.5027 138.416V141.482C96.5027 142.079 96.2087 142.378 95.6207 142.378ZM106.064 142.406C105.355 142.406 104.739 142.261 104.216 141.972C103.693 141.682 103.287 141.272 102.998 140.74C102.709 140.198 102.564 139.564 102.564 138.836C102.564 138.285 102.643 137.795 102.802 137.366C102.97 136.927 103.208 136.554 103.516 136.246C103.824 135.928 104.193 135.69 104.622 135.532C105.051 135.364 105.532 135.28 106.064 135.28C106.773 135.28 107.389 135.424 107.912 135.714C108.435 136.003 108.841 136.414 109.13 136.946C109.419 137.478 109.564 138.108 109.564 138.836C109.564 139.386 109.48 139.881 109.312 140.32C109.153 140.758 108.92 141.136 108.612 141.454C108.304 141.762 107.935 142 107.506 142.168C107.077 142.326 106.596 142.406 106.064 142.406ZM106.064 141.076C106.409 141.076 106.713 140.992 106.974 140.824C107.235 140.656 107.436 140.408 107.576 140.082C107.725 139.746 107.8 139.33 107.8 138.836C107.8 138.089 107.641 137.534 107.324 137.17C107.007 136.796 106.587 136.61 106.064 136.61C105.719 136.61 105.415 136.694 105.154 136.862C104.893 137.02 104.687 137.268 104.538 137.604C104.398 137.93 104.328 138.341 104.328 138.836C104.328 139.573 104.487 140.133 104.804 140.516C105.121 140.889 105.541 141.076 106.064 141.076ZM111.877 144.898C111.597 144.898 111.382 144.823 111.233 144.674C111.083 144.524 111.009 144.305 111.009 144.016V136.19C111.009 135.9 111.083 135.681 111.233 135.532C111.382 135.382 111.592 135.308 111.863 135.308C112.143 135.308 112.357 135.382 112.507 135.532C112.656 135.681 112.731 135.9 112.731 136.19V137.282L112.577 136.862C112.717 136.386 113.001 136.003 113.431 135.714C113.869 135.424 114.378 135.28 114.957 135.28C115.554 135.28 116.077 135.424 116.525 135.714C116.982 136.003 117.337 136.414 117.589 136.946C117.841 137.468 117.967 138.098 117.967 138.836C117.967 139.564 117.841 140.198 117.589 140.74C117.337 141.272 116.987 141.682 116.539 141.972C116.091 142.261 115.563 142.406 114.957 142.406C114.387 142.406 113.888 142.266 113.459 141.986C113.029 141.696 112.74 141.323 112.591 140.866H112.759V144.016C112.759 144.305 112.679 144.524 112.521 144.674C112.371 144.823 112.157 144.898 111.877 144.898ZM114.467 141.076C114.812 141.076 115.115 140.992 115.377 140.824C115.638 140.656 115.839 140.408 115.979 140.082C116.128 139.746 116.203 139.33 116.203 138.836C116.203 138.089 116.044 137.534 115.727 137.17C115.409 136.796 114.989 136.61 114.467 136.61C114.121 136.61 113.818 136.694 113.557 136.862C113.295 137.02 113.09 137.268 112.941 137.604C112.801 137.93 112.731 138.341 112.731 138.836C112.731 139.573 112.889 140.133 113.207 140.516C113.524 140.889 113.944 141.076 114.467 141.076Z" fill="#828282"/>
<path d="M12.7933 183.859C13.0931 182.939 14.3951 182.939 14.6949 183.859L16.446 189.234C16.5801 189.645 16.9639 189.924 17.3968 189.924H23.0576C24.0269 189.924 24.4293 191.165 23.6443 191.734L19.0694 195.048C18.7179 195.303 18.5709 195.755 18.7053 196.168L20.4539 201.535C20.7539 202.455 19.7006 203.222 18.9164 202.654L14.3308 199.332C13.9808 199.078 13.5074 199.078 13.1574 199.332L8.57183 202.654C7.78757 203.222 6.73428 202.455 7.0343 201.535L8.78288 196.168C8.91733 195.755 8.77025 195.303 8.41879 195.048L3.84392 191.734C3.05891 191.165 3.46124 189.924 4.43064 189.924H10.0914C10.5243 189.924 10.9081 189.645 11.0422 189.234L12.7933 183.859Z" fill="#070707"/>
<path d="M47.8902 183.859C48.1901 182.939 49.492 182.939 49.7918 183.859L51.5429 189.234C51.677 189.645 52.0608 189.924 52.4937 189.924H58.1545C59.1239 189.924 59.5262 191.165 58.7412 191.734L54.1663 195.048C53.8149 195.303 53.6678 195.755 53.8022 196.168L55.5508 201.535C55.8508 202.455 54.7975 203.222 54.0133 202.654L49.4277 199.332C49.0777 199.078 48.6043 199.078 48.2543 199.332L43.6688 202.654C42.8845 203.222 41.8312 202.455 42.1312 201.535L43.8798 196.168C44.0143 195.755 43.8672 195.303 43.5157 195.048L38.9408 191.734C38.1558 191.165 38.5582 189.924 39.5276 189.924H45.1883C45.6212 189.924 46.005 189.645 46.1391 189.234L47.8902 183.859Z" fill="#070707"/>
<path d="M82.9874 183.859C83.2872 182.939 84.5891 182.939 84.889 183.859L86.6401 189.234C86.7742 189.645 87.158 189.924 87.5909 189.924H93.2516C94.221 189.924 94.6234 191.165 93.8384 191.734L89.2635 195.048C88.912 195.303 88.7649 195.755 88.8994 196.168L90.648 201.535C90.948 202.455 89.8947 203.222 89.1105 202.654L84.5249 199.332C84.1749 199.078 83.7015 199.078 83.3515 199.332L78.7659 202.654C77.9817 203.222 76.9284 202.455 77.2284 201.535L78.977 196.168C79.1114 195.755 78.9643 195.303 78.6129 195.048L74.038 191.734C73.253 191.165 73.6553 189.924 74.6247 189.924H80.2855C80.7184 189.924 81.1022 189.645 81.2363 189.234L82.9874 183.859Z" fill="#070707"/>
<path d="M118.085 183.859C118.384 182.939 119.686 182.939 119.986 183.859L121.737 189.234C121.871 189.645 122.255 189.924 122.688 189.924H128.349C129.318 189.924 129.721 191.165 128.936 191.734L124.361 195.048C124.009 195.303 123.862 195.755 123.997 196.168L125.745 201.535C126.045 202.455 124.992 203.222 124.208 202.654L119.622 199.332C119.272 199.078 118.799 199.078 118.449 199.332L113.863 202.654C113.079 203.222 112.026 202.455 112.326 201.535L114.074 196.168C114.209 195.755 114.062 195.303 113.71 195.048L109.135 191.734C108.35 191.165 108.753 189.924 109.722 189.924H115.383C115.816 189.924 116.199 189.645 116.333 189.234L118.085 183.859Z" fill="#070707"/>
<path d="M153.182 183.859C153.482 182.939 154.783 182.939 155.083 183.859L156.834 189.234C156.969 189.645 157.352 189.924 157.785 189.924H163.446C164.415 189.924 164.818 191.165 164.033 191.734L159.458 195.048C159.106 195.303 158.959 195.755 159.094 196.168L160.842 201.535C161.142 202.455 160.089 203.222 159.305 202.654L154.719 199.332C154.369 199.078 153.896 199.078 153.546 199.332L148.96 202.654C148.176 203.222 147.123 202.455 147.423 201.535L149.171 196.168C149.306 195.755 149.159 195.303 148.807 195.048L144.232 191.734C143.447 191.165 143.85 189.924 144.819 189.924H150.48C150.913 189.924 151.297 189.645 151.431 189.234L153.182 183.859Z" fill="#E5E5E5"/>
<defs>
<radialGradient id="paint0_radial_2_170" cx="0" cy="0" r="1" gradientUnits="userSpaceOnUse" gradientTransform="translate(69.8385 22.5656) scale(62.0565 61.1565)">
<stop stop-color="#34364E" stop-opacity="0.98"/>
<stop offset="1" stop-color="#0C0824"/>
</radialGradient>
</defs>
</svg>
