<svg width="168" height="207" viewBox="0 0 168 207" fill="none" xmlns="http://www.w3.org/2000/svg">
<path d="M42.9341 4.42578H124.599V85.2804H42.9341V4.42578Z" fill="url(#paint0_radial_2_170)"/>
<path d="M42.9341 4.42575H124.599V85.2803H42.9341V4.42575ZM39.2212 89.0596H128.294V0.646484H39.2212V89.0596ZM99.2876 36.9311C96.3602 36.9311 95.3605 38.4392 95.3605 39.6929C95.3605 41.0556 96.021 42.0004 99.9659 44.0717C105.785 46.9425 107.606 49.7043 107.606 53.7379C107.606 59.7884 103.072 63.0408 96.9492 63.0408C93.7183 63.0408 90.9337 62.3685 89.345 61.4237C89.0772 61.3146 89.0415 61.1148 89.0415 60.8241V55.246C89.0415 54.8645 89.22 54.7554 89.4878 54.9371C91.8262 56.4815 94.5037 57.172 96.9492 57.172C99.8767 57.172 101.108 55.9183 101.108 54.2285C101.108 52.8658 100.252 51.6666 96.503 49.6861C91.2371 47.1242 89.0415 44.526 89.0415 40.1653C89.0415 35.2958 92.7901 31.244 99.2876 31.244C102.483 31.244 104.714 31.7346 105.928 32.2979C106.231 32.4796 106.303 32.7884 106.303 33.061V38.2393C106.303 38.5482 106.124 38.7299 105.749 38.6209C104.107 37.567 101.697 36.9311 99.2876 36.9311ZM67.3712 41.419C68.228 41.4917 68.8885 41.4917 70.3701 41.4917C74.7077 41.4917 78.7954 39.9472 78.7954 33.9331C78.7954 29.1364 75.868 26.7198 70.9234 26.7198C69.4418 26.7198 68.0317 26.7925 67.3533 26.8288L67.3712 41.419ZM60.7487 21.3598C60.7487 21.0872 61.2664 20.9055 61.5698 20.9055C63.9439 20.7965 67.4783 20.7239 71.1376 20.7239C81.4194 20.7239 85.4358 26.4654 85.4358 33.7878C85.4358 43.3813 78.5991 47.5058 70.2094 47.5058C68.7992 47.5058 68.3173 47.4331 67.3176 47.4331V61.9324C67.3176 62.2413 67.2105 62.3867 66.8714 62.3867H61.195C60.8915 62.3867 60.7487 62.2776 60.7487 61.9324V21.3598Z" fill="#31C5F0"/>
<path d="M67.668 121.434H67.584C67.4813 121.742 67.3647 122.092 67.234 122.484C67.1033 122.866 66.9633 123.268 66.814 123.688C66.674 124.108 66.5433 124.518 66.422 124.92L66.184 126.04C66.128 126.217 66.072 126.408 66.016 126.614C65.96 126.819 65.8993 127.02 65.834 127.216C65.778 127.412 65.722 127.603 65.666 127.79C65.6193 127.967 65.5773 128.126 65.54 128.266C65.4373 128.303 65.3253 128.336 65.204 128.364C65.0827 128.392 64.9333 128.406 64.756 128.406C64.4013 128.406 64.126 128.34 63.93 128.21C63.734 128.07 63.636 127.874 63.636 127.622C63.636 127.51 63.6547 127.398 63.692 127.286C63.7293 127.164 63.7667 127.029 63.804 126.88C63.8973 126.572 64.0187 126.184 64.168 125.718C64.3267 125.251 64.4993 124.747 64.686 124.206C64.8727 123.655 65.0593 123.114 65.246 122.582C65.442 122.04 65.624 121.541 65.792 121.084C65.96 120.626 66.1 120.258 66.212 119.978C66.3427 119.903 66.5387 119.833 66.8 119.768C67.0707 119.693 67.3367 119.656 67.598 119.656C67.9713 119.656 68.3073 119.712 68.606 119.824C68.9047 119.926 69.0913 120.099 69.166 120.342C69.3527 120.836 69.5533 121.415 69.768 122.078C69.9827 122.731 70.202 123.412 70.426 124.122C70.65 124.831 70.86 125.522 71.056 126.194C71.2613 126.866 71.4433 127.472 71.602 128.014C71.5087 128.126 71.3687 128.214 71.182 128.28C70.9953 128.354 70.7807 128.392 70.538 128.392C70.174 128.392 69.9173 128.331 69.768 128.21C69.6187 128.079 69.5067 127.878 69.432 127.608L68.928 125.942L68.718 124.85C68.5873 124.42 68.4567 123.996 68.326 123.576C68.1953 123.156 68.074 122.764 67.962 122.4C67.85 122.026 67.752 121.704 67.668 121.434ZM65.316 126.334L66.072 124.766H69.432L69.698 126.334H65.316ZM77.0389 126.684V122.4H78.9849V126.922C78.9849 127.136 78.9383 127.318 78.8449 127.468C78.7516 127.608 78.6069 127.738 78.4109 127.86C78.1683 128.018 77.8463 128.158 77.4449 128.28C77.0436 128.41 76.5863 128.476 76.0729 128.476C75.3076 128.476 74.6449 128.35 74.0849 128.098C73.5343 127.836 73.1049 127.444 72.7969 126.922C72.4983 126.39 72.3489 125.732 72.3489 124.948C72.3489 124.126 72.5029 123.454 72.8109 122.932C73.1189 122.409 73.5343 122.022 74.0569 121.77C74.5796 121.508 75.1629 121.378 75.8069 121.378C76.1429 121.378 76.4463 121.42 76.7169 121.504C76.9876 121.578 77.2069 121.667 77.3749 121.77V123.394C77.2349 123.272 77.0529 123.165 76.8289 123.072C76.6143 122.969 76.3576 122.918 76.0589 122.918C75.7229 122.918 75.4243 122.988 75.1629 123.128C74.9016 123.268 74.6963 123.492 74.5469 123.8C74.4069 124.098 74.3369 124.486 74.3369 124.962C74.3369 125.634 74.4909 126.128 74.7989 126.446C75.1069 126.763 75.5269 126.922 76.0589 126.922C76.2829 126.922 76.4743 126.898 76.6329 126.852C76.8009 126.796 76.9363 126.74 77.0389 126.684ZM78.9849 122.792H77.0389V119.152C77.1136 119.133 77.2303 119.11 77.3889 119.082C77.5569 119.054 77.7296 119.04 77.9069 119.04C78.2896 119.04 78.5649 119.105 78.7329 119.236C78.9009 119.366 78.9849 119.604 78.9849 119.95V122.792ZM87.3883 124.92C87.3883 125.648 87.2437 126.278 86.9543 126.81C86.665 127.342 86.259 127.752 85.7363 128.042C85.2137 128.331 84.5977 128.476 83.8883 128.476C83.179 128.476 82.5583 128.336 82.0263 128.056C81.5037 127.766 81.0977 127.356 80.8083 126.824C80.519 126.292 80.3743 125.657 80.3743 124.92C80.3743 124.192 80.519 123.566 80.8083 123.044C81.107 122.512 81.5177 122.101 82.0403 121.812C82.5723 121.522 83.1883 121.378 83.8883 121.378C84.5883 121.378 85.1997 121.522 85.7223 121.812C86.245 122.101 86.651 122.512 86.9403 123.044C87.239 123.576 87.3883 124.201 87.3883 124.92ZM83.8743 122.918C83.417 122.918 83.053 123.095 82.7823 123.45C82.5117 123.795 82.3763 124.285 82.3763 124.92C82.3763 125.573 82.507 126.072 82.7683 126.418C83.039 126.763 83.4123 126.936 83.8883 126.936C84.355 126.936 84.719 126.763 84.9803 126.418C85.251 126.063 85.3863 125.564 85.3863 124.92C85.3863 124.294 85.251 123.804 84.9803 123.45C84.719 123.095 84.3503 122.918 83.8743 122.918ZM92.2211 121.378C92.8277 121.378 93.3737 121.508 93.8591 121.77C94.3537 122.031 94.7411 122.423 95.0211 122.946C95.3104 123.468 95.4551 124.122 95.4551 124.906C95.4551 125.68 95.3011 126.334 94.9931 126.866C94.6944 127.398 94.2744 127.799 93.7331 128.07C93.1917 128.34 92.5617 128.476 91.8431 128.476C91.2831 128.476 90.7977 128.406 90.3871 128.266C89.9764 128.135 89.6311 127.976 89.3511 127.79C89.1551 127.659 89.0104 127.514 88.9171 127.356C88.8237 127.188 88.7771 126.996 88.7771 126.782V122.302H90.7231V126.642C90.8351 126.707 90.9844 126.772 91.1711 126.838C91.3577 126.894 91.5771 126.922 91.8291 126.922C92.3144 126.922 92.7064 126.754 93.0051 126.418C93.3037 126.082 93.4531 125.578 93.4531 124.906C93.4531 124.215 93.3084 123.711 93.0191 123.394C92.7297 123.076 92.3471 122.918 91.8711 122.918C91.5537 122.918 91.2737 122.978 91.0311 123.1C90.7977 123.212 90.5971 123.338 90.4291 123.478L90.3591 121.91C90.5737 121.779 90.8351 121.658 91.1431 121.546C91.4604 121.434 91.8197 121.378 92.2211 121.378ZM90.7231 122.764H88.7771V119.152C88.8611 119.133 88.9824 119.11 89.1411 119.082C89.2997 119.054 89.4724 119.04 89.6591 119.04C90.0324 119.04 90.3031 119.105 90.4711 119.236C90.6391 119.366 90.7231 119.604 90.7231 119.95V122.764ZM97.7115 125.872L97.6275 124.528L101.211 123.982C101.183 123.683 101.057 123.417 100.833 123.184C100.619 122.95 100.301 122.834 99.8815 122.834C99.4335 122.834 99.0648 122.983 98.7755 123.282C98.4861 123.58 98.3321 124.01 98.3135 124.57L98.3695 125.452C98.4535 125.993 98.6775 126.385 99.0415 126.628C99.4055 126.87 99.8488 126.992 100.371 126.992C100.763 126.992 101.127 126.936 101.463 126.824C101.809 126.712 102.084 126.59 102.289 126.46C102.42 126.544 102.527 126.656 102.611 126.796C102.705 126.936 102.751 127.085 102.751 127.244C102.751 127.505 102.639 127.729 102.415 127.916C102.201 128.102 101.907 128.242 101.533 128.336C101.16 128.429 100.731 128.476 100.245 128.476C99.5175 128.476 98.8688 128.34 98.2995 128.07C97.7395 127.799 97.2961 127.393 96.9695 126.852C96.6521 126.31 96.4935 125.638 96.4935 124.836C96.4935 124.257 96.5868 123.748 96.7735 123.31C96.9601 122.871 97.2075 122.512 97.5155 122.232C97.8328 121.942 98.1921 121.728 98.5935 121.588C99.0041 121.448 99.4288 121.378 99.8675 121.378C100.502 121.378 101.053 121.504 101.519 121.756C101.995 122.008 102.369 122.353 102.639 122.792C102.91 123.23 103.045 123.734 103.045 124.304C103.045 124.584 102.971 124.798 102.821 124.948C102.672 125.088 102.467 125.176 102.205 125.214L97.7115 125.872ZM52.2895 138.912H53.1855C53.6895 138.912 54.0908 138.795 54.3895 138.562C54.6882 138.328 54.8375 137.988 54.8375 137.54C54.8375 137.082 54.6975 136.742 54.4175 136.518C54.1375 136.294 53.7362 136.182 53.2135 136.182C53.0268 136.182 52.8588 136.186 52.7095 136.196C52.5602 136.205 52.4202 136.224 52.2895 136.252V138.912ZM53.3115 140.494H50.2875V135.51C50.2875 135.332 50.3388 135.197 50.4415 135.104C50.5442 135.001 50.6795 134.917 50.8475 134.852C51.1462 134.749 51.5055 134.674 51.9255 134.628C52.3455 134.581 52.7328 134.558 53.0875 134.558C54.3382 134.558 55.2808 134.828 55.9155 135.37C56.5502 135.902 56.8675 136.62 56.8675 137.526C56.8675 138.123 56.7275 138.646 56.4475 139.094C56.1675 139.532 55.7615 139.878 55.2295 140.13C54.7068 140.372 54.0675 140.494 53.3115 140.494ZM50.2875 139.612H52.3035V143.252C52.2102 143.27 52.0748 143.294 51.8975 143.322C51.7295 143.35 51.5522 143.364 51.3655 143.364C50.9735 143.364 50.6935 143.294 50.5255 143.154C50.3668 143.004 50.2875 142.762 50.2875 142.426V139.612ZM64.5139 140.424H62.5679V139.164C62.5679 138.725 62.4512 138.408 62.2179 138.212C61.9846 138.016 61.6906 137.918 61.3359 137.918C61.0279 137.918 60.7479 137.978 60.4959 138.1C60.2532 138.212 60.0432 138.338 59.8659 138.478L59.7959 136.91C60.0106 136.779 60.2766 136.658 60.5939 136.546C60.9206 136.434 61.2846 136.378 61.6859 136.378C62.5539 136.378 63.2399 136.602 63.7439 137.05C64.2572 137.498 64.5139 138.17 64.5139 139.066V140.424ZM58.1999 139.57H60.1459V143.252C60.0619 143.27 59.9406 143.294 59.7819 143.322C59.6232 143.35 59.4506 143.364 59.2639 143.364C58.8999 143.364 58.6292 143.298 58.4519 143.168C58.2839 143.037 58.1999 142.799 58.1999 142.454V139.57ZM62.5679 139.57L64.5139 139.584V143.252C64.4299 143.27 64.3086 143.294 64.1499 143.322C63.9912 143.35 63.8186 143.364 63.6319 143.364C63.2586 143.364 62.9879 143.298 62.8199 143.168C62.6519 143.037 62.5679 142.799 62.5679 142.454V139.57ZM60.1459 140.578H58.1999V134.152C58.2839 134.133 58.4052 134.11 58.5639 134.082C58.7226 134.054 58.8952 134.04 59.0819 134.04C59.4552 134.04 59.7259 134.105 59.8939 134.236C60.0619 134.366 60.1459 134.604 60.1459 134.95V140.578ZM72.8893 139.92C72.8893 140.648 72.7446 141.278 72.4553 141.81C72.166 142.342 71.76 142.752 71.2373 143.042C70.7146 143.331 70.0986 143.476 69.3893 143.476C68.68 143.476 68.0593 143.336 67.5273 143.056C67.0046 142.766 66.5986 142.356 66.3093 141.824C66.02 141.292 65.8753 140.657 65.8753 139.92C65.8753 139.192 66.02 138.566 66.3093 138.044C66.608 137.512 67.0186 137.101 67.5413 136.812C68.0733 136.522 68.6893 136.378 69.3893 136.378C70.0893 136.378 70.7006 136.522 71.2233 136.812C71.746 137.101 72.152 137.512 72.4413 138.044C72.74 138.576 72.8893 139.201 72.8893 139.92ZM69.3753 137.918C68.918 137.918 68.554 138.095 68.2833 138.45C68.0126 138.795 67.8773 139.285 67.8773 139.92C67.8773 140.573 68.008 141.072 68.2693 141.418C68.54 141.763 68.9133 141.936 69.3893 141.936C69.856 141.936 70.22 141.763 70.4813 141.418C70.752 141.063 70.8873 140.564 70.8873 139.92C70.8873 139.294 70.752 138.804 70.4813 138.45C70.22 138.095 69.8513 137.918 69.3753 137.918ZM74.264 139.57H76.21V141.124C76.21 141.404 76.294 141.604 76.462 141.726C76.6394 141.847 76.882 141.908 77.19 141.908C77.3394 141.908 77.4934 141.894 77.652 141.866C77.82 141.828 77.9647 141.786 78.086 141.74C78.1607 141.814 78.226 141.912 78.282 142.034C78.338 142.146 78.366 142.281 78.366 142.44C78.366 142.729 78.2354 142.972 77.974 143.168C77.722 143.364 77.302 143.462 76.714 143.462C75.9487 143.462 75.3467 143.289 74.908 142.944C74.4787 142.598 74.264 142.038 74.264 141.264V139.57ZM75.482 138.24V136.728H78.198C78.2447 136.802 78.2867 136.905 78.324 137.036C78.3707 137.166 78.394 137.311 78.394 137.47C78.394 137.731 78.3334 137.927 78.212 138.058C78.0907 138.179 77.9274 138.24 77.722 138.24H75.482ZM76.21 139.934H74.264V134.894C74.348 134.866 74.4694 134.838 74.628 134.81C74.796 134.782 74.9687 134.768 75.146 134.768C75.51 134.768 75.776 134.833 75.944 134.964C76.1214 135.094 76.21 135.332 76.21 135.678V139.934ZM86.2604 139.92C86.2604 140.648 86.1157 141.278 85.8264 141.81C85.5371 142.342 85.1311 142.752 84.6084 143.042C84.0857 143.331 83.4697 143.476 82.7604 143.476C82.0511 143.476 81.4304 143.336 80.8984 143.056C80.3757 142.766 79.9697 142.356 79.6804 141.824C79.3911 141.292 79.2464 140.657 79.2464 139.92C79.2464 139.192 79.3911 138.566 79.6804 138.044C79.9791 137.512 80.3897 137.101 80.9124 136.812C81.4444 136.522 82.0604 136.378 82.7604 136.378C83.4604 136.378 84.0717 136.522 84.5944 136.812C85.1171 137.101 85.5231 137.512 85.8124 138.044C86.1111 138.576 86.2604 139.201 86.2604 139.92ZM82.7464 137.918C82.2891 137.918 81.9251 138.095 81.6544 138.45C81.3837 138.795 81.2484 139.285 81.2484 139.92C81.2484 140.573 81.3791 141.072 81.6404 141.418C81.9111 141.763 82.2844 141.936 82.7604 141.936C83.2271 141.936 83.5911 141.763 83.8524 141.418C84.1231 141.063 84.2584 140.564 84.2584 139.92C84.2584 139.294 84.1231 138.804 83.8524 138.45C83.5911 138.095 83.2224 137.918 82.7464 137.918ZM92.9551 141.334C92.9551 142.006 92.7031 142.533 92.1991 142.916C91.6951 143.298 90.9671 143.49 90.0151 143.49C89.2498 143.49 88.6198 143.378 88.1251 143.154C87.6398 142.92 87.3971 142.598 87.3971 142.188C87.3971 142.01 87.4391 141.852 87.5231 141.712C87.6071 141.562 87.7098 141.446 87.8311 141.362C88.1018 141.52 88.4098 141.665 88.7551 141.796C89.1005 141.926 89.4971 141.992 89.9451 141.992C90.6638 141.992 91.0231 141.777 91.0231 141.348C91.0231 141.17 90.9578 141.03 90.8271 140.928C90.6965 140.816 90.4911 140.732 90.2111 140.676L89.5391 140.508C88.8205 140.358 88.2838 140.12 87.9291 139.794C87.5745 139.467 87.3971 139.024 87.3971 138.464C87.3971 137.829 87.6538 137.32 88.1671 136.938C88.6805 136.555 89.3758 136.364 90.2531 136.364C90.7105 136.364 91.1165 136.41 91.4711 136.504C91.8351 136.588 92.1198 136.718 92.3251 136.896C92.5398 137.073 92.6471 137.288 92.6471 137.54C92.6471 137.717 92.6098 137.876 92.5351 138.016C92.4605 138.146 92.3671 138.254 92.2551 138.338C92.1525 138.272 91.9985 138.202 91.7931 138.128C91.5878 138.053 91.3591 137.992 91.1071 137.946C90.8645 137.89 90.6311 137.862 90.4071 137.862C90.0711 137.862 89.8005 137.913 89.5951 138.016C89.3991 138.118 89.3011 138.268 89.3011 138.464C89.3011 138.594 89.3571 138.711 89.4691 138.814C89.5811 138.907 89.7771 138.986 90.0571 139.052L90.6731 139.192C91.4851 139.378 92.0685 139.644 92.4231 139.99C92.7778 140.335 92.9551 140.783 92.9551 141.334ZM100.635 140.424H98.689V139.164C98.689 138.725 98.5723 138.408 98.339 138.212C98.1057 138.016 97.8117 137.918 97.457 137.918C97.149 137.918 96.869 137.978 96.617 138.1C96.3743 138.212 96.1643 138.338 95.987 138.478L95.917 136.91C96.1317 136.779 96.3977 136.658 96.715 136.546C97.0417 136.434 97.4057 136.378 97.807 136.378C98.675 136.378 99.361 136.602 99.865 137.05C100.378 137.498 100.635 138.17 100.635 139.066V140.424ZM94.321 139.57H96.267V143.252C96.183 143.27 96.0617 143.294 95.903 143.322C95.7443 143.35 95.5717 143.364 95.385 143.364C95.021 143.364 94.7503 143.298 94.573 143.168C94.405 143.037 94.321 142.799 94.321 142.454V139.57ZM98.689 139.57L100.635 139.584V143.252C100.551 143.27 100.43 143.294 100.271 143.322C100.112 143.35 99.9397 143.364 99.753 143.364C99.3797 143.364 99.109 143.298 98.941 143.168C98.773 143.037 98.689 142.799 98.689 142.454V139.57ZM96.267 140.578H94.321V134.152C94.405 134.133 94.5263 134.11 94.685 134.082C94.8437 134.054 95.0163 134.04 95.203 134.04C95.5763 134.04 95.847 134.105 96.015 134.236C96.183 134.366 96.267 134.604 96.267 134.95V140.578ZM109.01 139.92C109.01 140.648 108.866 141.278 108.576 141.81C108.287 142.342 107.881 142.752 107.358 143.042C106.836 143.331 106.22 143.476 105.51 143.476C104.801 143.476 104.18 143.336 103.648 143.056C103.126 142.766 102.72 142.356 102.43 141.824C102.141 141.292 101.996 140.657 101.996 139.92C101.996 139.192 102.141 138.566 102.43 138.044C102.729 137.512 103.14 137.101 103.662 136.812C104.194 136.522 104.81 136.378 105.51 136.378C106.21 136.378 106.822 136.522 107.344 136.812C107.867 137.101 108.273 137.512 108.562 138.044C108.861 138.576 109.01 139.201 109.01 139.92ZM105.496 137.918C105.039 137.918 104.675 138.095 104.404 138.45C104.134 138.795 103.998 139.285 103.998 139.92C103.998 140.573 104.129 141.072 104.39 141.418C104.661 141.763 105.034 141.936 105.51 141.936C105.977 141.936 106.341 141.763 106.602 141.418C106.873 141.063 107.008 140.564 107.008 139.92C107.008 139.294 106.873 138.804 106.602 138.45C106.341 138.095 105.972 137.918 105.496 137.918ZM113.619 143.462C114.272 143.462 114.856 143.326 115.369 143.056C115.882 142.785 116.284 142.388 116.573 141.866C116.872 141.334 117.021 140.676 117.021 139.892C117.021 139.07 116.862 138.403 116.545 137.89C116.237 137.367 115.808 136.984 115.257 136.742C114.716 136.499 114.095 136.378 113.395 136.378C112.872 136.378 112.401 136.438 111.981 136.56C111.561 136.672 111.211 136.812 110.931 136.98C110.744 137.101 110.604 137.236 110.511 137.386C110.418 137.535 110.371 137.726 110.371 137.96V142.524H112.317V138.198C112.448 138.123 112.602 138.058 112.779 138.002C112.956 137.946 113.162 137.918 113.395 137.918C113.722 137.918 114.006 137.988 114.249 138.128C114.492 138.258 114.678 138.468 114.809 138.758C114.949 139.038 115.019 139.416 115.019 139.892C115.019 140.573 114.87 141.082 114.571 141.418C114.272 141.744 113.862 141.908 113.339 141.908C113.022 141.908 112.746 141.852 112.513 141.74C112.289 141.628 112.093 141.502 111.925 141.362V143.028C112.121 143.14 112.364 143.238 112.653 143.322C112.942 143.415 113.264 143.462 113.619 143.462ZM112.317 142.02L110.371 142.006V144.974C110.371 145.31 110.455 145.543 110.623 145.674C110.8 145.814 111.071 145.884 111.435 145.884C111.622 145.884 111.794 145.87 111.953 145.842C112.112 145.814 112.233 145.79 112.317 145.772V142.02Z" fill="#828282"/>
<path d="M12.7933 183.859C13.0931 182.939 14.3951 182.939 14.6949 183.859L16.446 189.234C16.5801 189.645 16.9639 189.924 17.3968 189.924H23.0576C24.0269 189.924 24.4293 191.165 23.6443 191.734L19.0694 195.048C18.7179 195.303 18.5709 195.755 18.7053 196.168L20.4539 201.535C20.7539 202.455 19.7006 203.222 18.9164 202.654L14.3308 199.332C13.9808 199.078 13.5074 199.078 13.1574 199.332L8.57183 202.654C7.78757 203.222 6.73428 202.455 7.0343 201.535L8.78288 196.168C8.91733 195.755 8.77025 195.303 8.41879 195.048L3.84392 191.734C3.05891 191.165 3.46124 189.924 4.43064 189.924H10.0914C10.5243 189.924 10.9081 189.645 11.0422 189.234L12.7933 183.859Z" fill="#070707"/>
<path d="M47.8902 183.859C48.1901 182.939 49.492 182.939 49.7918 183.859L51.5429 189.234C51.677 189.645 52.0608 189.924 52.4937 189.924H58.1545C59.1239 189.924 59.5262 191.165 58.7412 191.734L54.1663 195.048C53.8149 195.303 53.6678 195.755 53.8022 196.168L55.5508 201.535C55.8508 202.455 54.7975 203.222 54.0133 202.654L49.4277 199.332C49.0777 199.078 48.6043 199.078 48.2543 199.332L43.6688 202.654C42.8845 203.222 41.8312 202.455 42.1312 201.535L43.8798 196.168C44.0143 195.755 43.8672 195.303 43.5157 195.048L38.9408 191.734C38.1558 191.165 38.5582 189.924 39.5276 189.924H45.1883C45.6212 189.924 46.005 189.645 46.1391 189.234L47.8902 183.859Z" fill="#070707"/>
<path d="M82.9874 183.859C83.2872 182.939 84.5891 182.939 84.889 183.859L86.6401 189.234C86.7742 189.645 87.158 189.924 87.5909 189.924H93.2516C94.221 189.924 94.6234 191.165 93.8384 191.734L89.2635 195.048C88.912 195.303 88.7649 195.755 88.8994 196.168L90.648 201.535C90.948 202.455 89.8947 203.222 89.1105 202.654L84.5249 199.332C84.1749 199.078 83.7015 199.078 83.3515 199.332L78.7659 202.654C77.9817 203.222 76.9284 202.455 77.2284 201.535L78.977 196.168C79.1114 195.755 78.9643 195.303 78.6129 195.048L74.038 191.734C73.253 191.165 73.6553 189.924 74.6247 189.924H80.2855C80.7184 189.924 81.1022 189.645 81.2363 189.234L82.9874 183.859Z" fill="#070707"/>
<path d="M118.085 183.859C118.384 182.939 119.686 182.939 119.986 183.859L121.737 189.234C121.871 189.645 122.255 189.924 122.688 189.924H128.349C129.318 189.924 129.721 191.165 128.936 191.734L124.361 195.048C124.009 195.303 123.862 195.755 123.997 196.168L125.745 201.535C126.045 202.455 124.992 203.222 124.208 202.654L119.622 199.332C119.272 199.078 118.799 199.078 118.449 199.332L113.863 202.654C113.079 203.222 112.026 202.455 112.326 201.535L114.074 196.168C114.209 195.755 114.062 195.303 113.71 195.048L109.135 191.734C108.35 191.165 108.753 189.924 109.722 189.924H115.383C115.816 189.924 116.199 189.645 116.333 189.234L118.085 183.859Z" fill="#070707"/>
<path d="M153.182 183.859C153.482 182.939 154.783 182.939 155.083 183.859L156.834 189.234C156.969 189.645 157.352 189.924 157.785 189.924H163.446C164.415 189.924 164.818 191.165 164.033 191.734L159.458 195.048C159.106 195.303 158.959 195.755 159.094 196.168L160.842 201.535C161.142 202.455 160.089 203.222 159.305 202.654L154.719 199.332C154.369 199.078 153.896 199.078 153.546 199.332L148.96 202.654C148.176 203.222 147.123 202.455 147.423 201.535L149.171 196.168C149.306 195.755 149.159 195.303 148.807 195.048L144.232 191.734C143.447 191.165 143.85 189.924 144.819 189.924H150.48C150.913 189.924 151.297 189.645 151.431 189.234L153.182 183.859Z" fill="#E5E5E5"/>
<defs>
<radialGradient id="paint0_radial_2_170" cx="0" cy="0" r="1" gradientUnits="userSpaceOnUse" gradientTransform="translate(69.8385 22.5656) scale(62.0565 61.1565)">
<stop stop-color="#34364E" stop-opacity="0.98"/>
<stop offset="1" stop-color="#0C0824"/>
</radialGradient>
</defs>
</svg>
